<svg xmlns="http://www.w3.org/2000/svg" viewBox="0 0 256 256"><defs><style>.cls-1,.cls-3{fill:none;}.cls-2{fill:#fff;}.cls-3{stroke:#fff;stroke-miterlimit:10;}</style></defs><g id="Livello_2" data-name="Livello 2"><g id="Livello_1-2" data-name="Livello 1"><path class="cls-1" d="M200.89,88V186.5H55.11V69.5h57.32a3.26,3.26,0,0,1-.53.09c-2.32.11-4.62.27-6.92.61a56,56,0,0,0-9.68,2.27,58.45,58.45,0,0,0-40,56.68,57.18,57.18,0,0,0,3.83,19.73,58.44,58.44,0,0,0,39.43,35.46,57.59,57.59,0,0,0,7.24,1.44c1.33.17,2.68.29,4,.37s2.88.12,4.32.12,2.67-.09,4-.15c.44,0,.89-.1,1.33-.15,0-.13,0-.2,0-.27l0-16.87a1.75,1.75,0,0,0,0-.32s0,0,0,0l-.08-.09a40.63,40.63,0,0,1-22.19-3.28,40.69,40.69,0,0,1,22.28-77.38c.14-.67.09-17.23-.06-17.71l-3.94-.34L114,69.5h77.39a6.31,6.31,0,0,1-.73.15c-.86.09-1.71.15-2.57.23a48.21,48.21,0,0,0-6.31,1,58.58,58.58,0,0,0-45.84,57.6A60,60,0,0,0,138,143.69a57.59,57.59,0,0,0,47.83,42c1.79.24,3.59.32,5.39.48a44.06,44.06,0,0,0,8.2-.26c.32,0,.64-.09,1-.14.13-.69.09-17.14,0-17.55h-.48c-1.11.1-2.22.24-3.33.28a42.64,42.64,0,0,1-11.14-1.06,40.13,40.13,0,0,1-30.15-30c0-.22-.07-.45-.11-.76h33.51c.15-.56.14-17.07,0-17.56l-33.45,0c.06-.28.09-.47.13-.66A40.81,40.81,0,0,1,184.87,88.4a41.47,41.47,0,0,1,7.67-1.18,22.89,22.89,0,0,1,3.61,0C197.74,87.41,199.31,87.75,200.89,88Z"/><path class="cls-2" d="M200.89,88c-1.58-.27-3.15-.61-4.74-.78a22.89,22.89,0,0,0-3.61,0,41.47,41.47,0,0,0-7.67,1.18,40.81,40.81,0,0,0-29.54,29.94c0,.19-.07.38-.13.66l33.45,0c.15.49.16,17,0,17.56H155.15c0,.31.06.54.11.76a40.13,40.13,0,0,0,30.15,30,42.64,42.64,0,0,0,11.14,1.06c1.11,0,2.22-.18,3.33-.28h.48c.13.41.17,16.86,0,17.55-.31,0-.63.11-1,.14a44.06,44.06,0,0,1-8.2.26c-1.8-.16-3.6-.24-5.39-.48a57.59,57.59,0,0,1-47.83-42,60,60,0,0,1-2.13-15.19,58.58,58.58,0,0,1,45.84-57.6,48.21,48.21,0,0,1,6.31-1c.86-.08,1.71-.14,2.57-.23a6.31,6.31,0,0,0,.73-.15h6.47c.39.06.78.12,1.18.16.63.07,1.26.11,1.89.17Z"/><path class="cls-2" d="M114,69.5l1.57.17,3.94.34c.15.48.2,17,.06,17.71A40.56,40.56,0,0,0,90.4,95a40.67,40.67,0,0,0,6.85,70.15,40.63,40.63,0,0,0,22.19,3.28l.08.09s0,0,0,0a1.75,1.75,0,0,1,0,.32l0,16.87c0,.07,0,.14,0,.27-.44.05-.89.13-1.33.15-1.33.06-2.67.14-4,.15s-2.88,0-4.32-.12-2.7-.2-4-.37a57.59,57.59,0,0,1-7.24-1.44,58.44,58.44,0,0,1-39.43-35.46,58.68,58.68,0,0,1,7.51-55.57A57.21,57.21,0,0,1,95.3,72.47,56,56,0,0,1,105,70.2c2.3-.34,4.6-.5,6.92-.61a3.26,3.26,0,0,0,.53-.09Z"/><path class="cls-2" d="M200.89,69.83c-.63-.06-1.26-.1-1.89-.17-.4,0-.79-.1-1.18-.16h3.07Z"/><circle class="cls-3" cx="128" cy="128" r="127.5"/></g></g></svg>