<svg xmlns="http://www.w3.org/2000/svg" viewBox="0 0 276.39 49.51"><defs><style>.cls-1{fill:#343131;}</style></defs><g id="Livello_2" data-name="Livello 2"><g id="Livello_1-2" data-name="Livello 1"><path class="cls-1" d="M0,23.84V0H14.91V3.55H4V23.86H0Zm2.61-10V10.29H13.39v3.55Z"/><path class="cls-1" d="M18.42,24.09a2.63,2.63,0,0,1-1.91-.7,2.56,2.56,0,0,1-.72-1.94,2.44,2.44,0,0,1,2.63-2.64,2.51,2.51,0,0,1,1.91.73A2.62,2.62,0,0,1,21,21.45a2.48,2.48,0,0,1-2.62,2.64Z"/><path class="cls-1" d="M24.57,23.84V4.67h4V20.46h8.8v3.38Z"/><path class="cls-1" d="M39.78,23.84V4.67h4V20.46h8.8v3.38Z"/><path class="cls-1" d="M55,23.84V4.67h4V23.84Z"/><path class="cls-1" d="M71,23.84V0h4.86l7,16.75h-.56L89.21,0h4.87V23.86H90.31V3.76h.86l-7,16.68H80.83L73.67,3.76h1V23.84Z"/><path class="cls-1" d="M96.67,23.84l6.18-19.17h5.83l6.2,19.17h-3.95L105.52,6.37h.42l-5.39,17.47Zm4.18-5.17.87-3.19h8.06l.86,3.19Z"/><path class="cls-1" d="M117.42,23.84V5.08c.85-.18,1.77-.34,2.78-.47a25.84,25.84,0,0,1,3.08-.2q4.08,0,6.14,1.52a5.4,5.4,0,0,1,2.06,4.65,5.74,5.74,0,0,1-1,3.4A5.8,5.8,0,0,1,127.73,16a11.6,11.6,0,0,1-4.29.69c-.36,0-.7,0-1,0s-.68,0-1-.07v7.18h-4Zm6-10.07a5.36,5.36,0,0,0,3.24-.78,2.82,2.82,0,0,0,1-2.41,2.9,2.9,0,0,0-1-2.44,5,5,0,0,0-3.06-.74c-.44,0-.83,0-1.21,0a9.7,9.7,0,0,0-1.1.17v6.06l1,.07Zm5.16,10.07L122.52,15h4.31l6.2,8.86Z"/><path class="cls-1" d="M138.22,23.84V8.05h-6V4.67h16.08V8.05h-6V23.84Z"/><path class="cls-1" d="M157.36,24.09A9.86,9.86,0,0,1,152.7,23a7.16,7.16,0,0,1-3.1-3.26,12.08,12.08,0,0,1-1.1-5.5,12.07,12.07,0,0,1,1.1-5.51,7.31,7.31,0,0,1,3.1-3.26,10.75,10.75,0,0,1,9.35,0,7.42,7.42,0,0,1,3.1,3.26,12.12,12.12,0,0,1,1.1,5.51,12.08,12.08,0,0,1-1.1,5.5,7.47,7.47,0,0,1-3.1,3.26A10,10,0,0,1,157.36,24.09Zm0-3.31a4.83,4.83,0,0,0,2.58-.65,4,4,0,0,0,1.64-2.08,10.18,10.18,0,0,0,.58-3.72,10.63,10.63,0,0,0-.58-3.84,4.06,4.06,0,0,0-1.66-2.11,4.78,4.78,0,0,0-2.56-.66,4.71,4.71,0,0,0-2.54.66,4.06,4.06,0,0,0-1.64,2.06,10.17,10.17,0,0,0-.57,3.74,10.71,10.71,0,0,0,.57,3.85,4.08,4.08,0,0,0,1.64,2.1A4.71,4.71,0,0,0,157.36,20.78Z"/><path class="cls-1" d="M169.71,23.84V4.67h4V20.46h8.8v3.38Z"/><path class="cls-1" d="M184.93,23.84V4.67h4V23.84Z"/><path class="cls-1" d="M193.38,23.84V4.67h4l9.21,14.05h-.63v-14h3.71V23.84h-4l-9.21-14h.61V23.84Z"/><path class="cls-1" d="M214.07,23.84V4.67h4V23.84Z"/><path class="cls-1" d="M234.42,24.09a21,21,0,0,1-2.74-.19,14.35,14.35,0,0,1-2.5-.58V20c.58.18,1.15.32,1.76.45a14.67,14.67,0,0,0,1.81.27,13.72,13.72,0,0,0,1.64.09,7.08,7.08,0,0,0,2.18-.27,2.21,2.21,0,0,0,1.17-.79,2.28,2.28,0,0,0,.36-1.27,2.2,2.2,0,0,0-.25-1.07,2.14,2.14,0,0,0-.88-.78,8.91,8.91,0,0,0-1.81-.59l-1.2-.27a7.56,7.56,0,0,1-4-2,4.85,4.85,0,0,1-1.26-3.52,5.43,5.43,0,0,1,.83-3,5.64,5.64,0,0,1,2.59-2.07,11.84,11.84,0,0,1,4.53-.74,20,20,0,0,1,2.31.15A13.9,13.9,0,0,1,241,5V8.28a15.45,15.45,0,0,0-2.09-.41,17.48,17.48,0,0,0-2.18-.15,8.08,8.08,0,0,0-2.47.29,2.4,2.4,0,0,0-1.28.8,2,2,0,0,0-.38,1.21,2,2,0,0,0,.54,1.47,5,5,0,0,0,2.2.94l1.19.27a10.51,10.51,0,0,1,3.12,1.16,4.53,4.53,0,0,1,1.77,1.79,5.61,5.61,0,0,1,.55,2.58,5.55,5.55,0,0,1-.84,3.06,5.44,5.44,0,0,1-2.54,2.06A10.38,10.38,0,0,1,234.42,24.09Z"/><path class="cls-1" d="M245.19,23.84V5.08C246,4.9,247,4.74,248,4.61a26.12,26.12,0,0,1,3.08-.2q4.1,0,6.15,1.52a5.4,5.4,0,0,1,2.06,4.65,5.67,5.67,0,0,1-1,3.4A5.82,5.82,0,0,1,255.5,16a11.63,11.63,0,0,1-4.29.69c-.36,0-.71,0-1.05,0s-.68,0-1-.07v7.18h-3.94Zm6-10.07a5.38,5.38,0,0,0,3.24-.78,2.82,2.82,0,0,0,1-2.41,2.9,2.9,0,0,0-1-2.44,5,5,0,0,0-3.07-.74c-.43,0-.83,0-1.21,0a10.45,10.45,0,0,0-1.1.17v6.06l1,.07Zm5.15,10.07L250.29,15h4.3l6.21,8.86Z"/><path class="cls-1" d="M263.59,23.84V4.67h4V20.46h8.8v3.38Z"/><path class="cls-1" d="M6.45,49.35V33.52c.67-.13,1.34-.24,2-.31a20.23,20.23,0,0,1,2.11-.11,7.48,7.48,0,0,1,4.8,1.32A5.06,5.06,0,0,1,17,38.58a5.14,5.14,0,0,1-1.62,4.09c-1.08.94-2.76,1.41-5.07,1.41h-1c-.33,0-.69,0-1.05-.08v5.36Zm3.9-6.7a5.69,5.69,0,0,0,3.75-1,3.78,3.78,0,0,0,1.15-3,3.87,3.87,0,0,0-1.14-3.11,5.14,5.14,0,0,0-3.44-1c-.47,0-.9,0-1.3.06s-.79.09-1.17.14v7.78c.36.05.7.09,1.05.11S10,42.65,10.35,42.65Z"/><path class="cls-1" d="M19.81,49.35V36.67c.54-.11,1.12-.18,1.75-.26a18,18,0,0,1,2-.11,7.06,7.06,0,0,1,4.09,1A3.35,3.35,0,0,1,29,40.19a3.52,3.52,0,0,1-.65,2.17,4.19,4.19,0,0,1-1.91,1.33,9.89,9.89,0,0,1-3.09.45c-.32,0-.63,0-.92,0l-.88,0v5.3H19.81Zm3.53-6.52a5.44,5.44,0,0,0,3.05-.65,2.21,2.21,0,0,0,.94-2,2.27,2.27,0,0,0-.87-2,5.1,5.1,0,0,0-2.79-.61c-.43,0-.81,0-1.14,0a8.13,8.13,0,0,0-1,.14v5l.88.06C22.68,42.82,23,42.83,23.34,42.83Zm4.73,6.52-4.73-6.06h1.93l4.78,6.06Z"/><path class="cls-1" d="M32.61,49.35V36.43h8.63v1.38H34.32V48h7v1.38Zm1.08-5.92V42.06h6.67v1.37Z"/><path class="cls-1" d="M44,49.35V36.43h8.58v1.39H45.71V49.35Zm1.19-5.75V42.18h6.48V43.6Z"/><path class="cls-1" d="M52.26,49.35l4.81-12.92h2.49l4.83,12.92H62.6L58.17,37.19h.25L54,49.35Zm2.63-4,.39-1.39h6l.4,1.39Z"/><path class="cls-1" d="M70.08,49.47c-.39,0-.77,0-1.17,0l-1.17-.07-1.17-.13V36.65c.38-.07.79-.15,1.21-.2s.86-.11,1.29-.13.89,0,1.34,0a7.47,7.47,0,0,1,4.07.86,3,3,0,0,1,1.28,2.61,3.11,3.11,0,0,1-.29,1.36,2.57,2.57,0,0,1-.9,1.05,3.39,3.39,0,0,1-1.55.56l0-.11a4.43,4.43,0,0,1,1.69.54,2.62,2.62,0,0,1,1,1.09,3.42,3.42,0,0,1,.36,1.59,3.23,3.23,0,0,1-.61,2,3.64,3.64,0,0,1-2,1.23A12.14,12.14,0,0,1,70.08,49.47Zm.29-1.26a8.72,8.72,0,0,0,2.45-.27,2.31,2.31,0,0,0,1.28-.82,2.24,2.24,0,0,0,.38-1.35,2.1,2.1,0,0,0-.81-1.8,4.48,4.48,0,0,0-2.59-.59H68v-1.3h2.81a4.24,4.24,0,0,0,2.56-.58,2.26,2.26,0,0,0-.09-3.39,5.12,5.12,0,0,0-2.72-.52c-.43,0-.85,0-1.23,0a8.74,8.74,0,0,0-1.09.14V48.1l1,.09Z"/><path class="cls-1" d="M82.32,49.47c-.39,0-.77,0-1.17,0L80,49.37l-1.17-.13V36.65c.38-.07.79-.15,1.21-.2s.86-.11,1.29-.13.89,0,1.34,0a7.47,7.47,0,0,1,4.07.86A3,3,0,0,1,88,39.76a3.11,3.11,0,0,1-.29,1.36,2.64,2.64,0,0,1-.9,1.05,3.39,3.39,0,0,1-1.55.56l0-.11a4.43,4.43,0,0,1,1.69.54,2.68,2.68,0,0,1,1,1.09,3.42,3.42,0,0,1,.36,1.59,3.23,3.23,0,0,1-.61,2,3.64,3.64,0,0,1-2,1.23A12.18,12.18,0,0,1,82.32,49.47Zm.29-1.26a8.72,8.72,0,0,0,2.45-.27,2.31,2.31,0,0,0,1.28-.82,2.24,2.24,0,0,0,.38-1.35,2.1,2.1,0,0,0-.81-1.8,4.52,4.52,0,0,0-2.6-.59H80.23v-1.3H83a4.24,4.24,0,0,0,2.56-.58,2.24,2.24,0,0,0-.09-3.39,5.12,5.12,0,0,0-2.72-.52c-.43,0-.85,0-1.22,0a8.67,8.67,0,0,0-1.1.14V48.1l1,.09Z"/><path class="cls-1" d="M91,49.35V36.67c.54-.11,1.12-.18,1.75-.26a18,18,0,0,1,2-.11,7.06,7.06,0,0,1,4.09,1,3.34,3.34,0,0,1,1.35,2.94,3.51,3.51,0,0,1-.64,2.17,4.19,4.19,0,0,1-1.91,1.33,9.89,9.89,0,0,1-3.09.45c-.32,0-.63,0-.92,0l-.88,0v5.3H91Zm3.53-6.52a5.44,5.44,0,0,0,3-.65,2.21,2.21,0,0,0,.94-2,2.27,2.27,0,0,0-.87-2,5.1,5.1,0,0,0-2.79-.61c-.44,0-.81,0-1.14,0a7.87,7.87,0,0,0-1,.14v5l.88.06C93.9,42.82,94.2,42.83,94.56,42.83Zm4.71,6.52-4.73-6.06h1.93l4.78,6.06Z"/><path class="cls-1" d="M103.81,49.35V36.43h1.75V49.35Z"/><path class="cls-1" d="M114.79,49.51a8.1,8.1,0,0,1-3.37-.65,4.66,4.66,0,0,1-2.2-2.1,8,8,0,0,1-.78-3.85,7.87,7.87,0,0,1,.78-3.77A5,5,0,0,1,111.43,37a8,8,0,0,1,3.5-.7,12.54,12.54,0,0,1,1.52.09,8.29,8.29,0,0,1,1.42.27V38.1a10,10,0,0,0-1.41-.28,13.41,13.41,0,0,0-1.44-.09,6,6,0,0,0-2.61.51,3.4,3.4,0,0,0-1.61,1.65,7.07,7.07,0,0,0-.54,3A7.22,7.22,0,0,0,110.8,46a3.28,3.28,0,0,0,1.59,1.61,5.8,5.8,0,0,0,2.51.47,8.89,8.89,0,0,0,1.46-.11,12,12,0,0,0,1.49-.34v1.47a11.6,11.6,0,0,1-1.46.34A9.25,9.25,0,0,1,114.79,49.51Z"/><path class="cls-1" d="M118.66,49.35l4.82-12.92H126l4.83,12.92H129l-4.45-12.16h.25l-4.45,12.16Zm2.63-4,.4-1.39h6l.4,1.39Z"/><path class="cls-1" d="M134.09,49.35V37.88h-4.5V36.43h10.78v1.45h-4.51V49.35Z"/><path class="cls-1" d="M142.37,49.35V36.43h1.75V49.35Z"/><path class="cls-1" d="M153.11,49.35V36.43h1.75V49.35Z"/><path class="cls-1" d="M158.57,49.35V36.43h1.77L168,47.32h-.36V36.43h1.64V49.35h-1.76l-7.63-10.89h.36V49.35Z"/><path class="cls-1" d="M183.75,49.51a8.17,8.17,0,0,1-3.37-.65,4.75,4.75,0,0,1-2.2-2.1,8.1,8.1,0,0,1-.77-3.85,8,8,0,0,1,.77-3.77A5.05,5.05,0,0,1,180.4,37a7.94,7.94,0,0,1,3.5-.7,12.26,12.26,0,0,1,1.51.09,8.22,8.22,0,0,1,1.43.27V38.1a10,10,0,0,0-1.41-.28,13.74,13.74,0,0,0-1.44-.09,6.12,6.12,0,0,0-2.62.51,3.38,3.38,0,0,0-1.6,1.65,7.07,7.07,0,0,0-.54,3,7.22,7.22,0,0,0,.54,3.07,3.24,3.24,0,0,0,1.59,1.61,5.75,5.75,0,0,0,2.5.47,8.73,8.73,0,0,0,1.46-.11,11.78,11.78,0,0,0,1.5-.34v1.47a11.6,11.6,0,0,1-1.46.34A9.31,9.31,0,0,1,183.75,49.51Z"/><path class="cls-1" d="M189.13,49.35V36.43h8.63v1.38h-6.92V48h7v1.38Zm1.08-5.92V42.06h6.67v1.37Z"/><path class="cls-1" d="M200.54,49.35V36.43h2.05l4.8,9.77h-.33l4.74-9.77h2.07V49.35h-1.64V37.91h.44l-4.73,9.63h-1.49l-4.81-9.61h.52V49.35Z"/><path class="cls-1" d="M217.62,49.35V36.43h8.64v1.38h-6.92V48h7v1.38Zm1.09-5.92V42.06h6.67v1.37Z"/><path class="cls-1" d="M229,49.35V36.43h1.76l7.63,10.89H238V36.43h1.64V49.35H237.9l-7.62-10.89h.36V49.35Z"/><path class="cls-1" d="M246.19,49.35V37.88h-4.5V36.43h10.78v1.45H248V49.35Z"/><path class="cls-1" d="M258.61,49.51a6.46,6.46,0,0,1-3-.69,4.65,4.65,0,0,1-2-2.15,8.69,8.69,0,0,1-.72-3.76,8.44,8.44,0,0,1,.72-3.78,4.72,4.72,0,0,1,2-2.16,6.23,6.23,0,0,1,3-.68,6.48,6.48,0,0,1,3.05.68,4.67,4.67,0,0,1,2,2.16,8.72,8.72,0,0,1,.72,3.78,8.4,8.4,0,0,1-.72,3.76,4.59,4.59,0,0,1-2,2.15A6.51,6.51,0,0,1,258.61,49.51Zm0-1.41a4,4,0,0,0,2.11-.51A3.41,3.41,0,0,0,262.13,46a7.81,7.81,0,0,0,.5-3,7.68,7.68,0,0,0-.5-3.07,3.36,3.36,0,0,0-1.41-1.67,4.25,4.25,0,0,0-2.11-.5,4.13,4.13,0,0,0-2.1.5,3.28,3.28,0,0,0-1.39,1.63,7.68,7.68,0,0,0-.51,3,7.9,7.9,0,0,0,.49,3.08,3.31,3.31,0,0,0,1.39,1.66A4.37,4.37,0,0,0,258.61,48.1Z"/></g></g></svg>