<svg width="166" height="166" viewBox="0 0 166 166" fill="none" xmlns="http://www.w3.org/2000/svg">
<path d="M120.8 41H45.2C40.9035 41 36.783 42.6456 33.7449 45.5749C30.7068 48.5041 29 52.477 29 56.6195V108.685C29 112.827 30.7068 116.8 33.7449 119.729C36.783 122.659 40.9035 124.304 45.2 124.304H120.8C125.097 124.304 129.217 122.659 132.255 119.729C135.293 116.8 137 112.827 137 108.685V56.6195C137 52.477 135.293 48.5041 132.255 45.5749C129.217 42.6456 125.097 41 120.8 41ZM118.586 51.413L86.834 82.0273C86.332 82.5153 85.7348 82.9026 85.0767 83.167C84.4187 83.4313 83.7129 83.5674 83 83.5674C82.2871 83.5674 81.5813 83.4313 80.9233 83.167C80.2652 82.9026 79.668 82.5153 79.166 82.0273L47.414 51.413H118.586ZM126.2 108.685C126.2 110.065 125.631 111.39 124.618 112.366C123.606 113.343 122.232 113.891 120.8 113.891H45.2C43.7678 113.891 42.3943 113.343 41.3816 112.366C40.3689 111.39 39.8 110.065 39.8 108.685V58.7542L71.552 89.3685C74.5895 92.2935 78.707 93.9365 83 93.9365C87.293 93.9365 91.4105 92.2935 94.448 89.3685L126.2 58.7542V108.685Z" fill="#D20D0D"/>
<circle cx="83" cy="83" r="82" stroke="#D20D0D" stroke-width="2"/>
</svg>
