<svg xmlns="http://www.w3.org/2000/svg" xmlns:xlink="http://www.w3.org/1999/xlink" viewBox="0 0 80.95 96.44"><defs><style>.cls-1,.cls-2,.cls-3{stroke:#1d1d1b;stroke-miterlimit:10;stroke-width:0.25px;}.cls-1{fill:url(#Sfumatura_senza_nome_3);}.cls-2{fill:url(#Sfumatura_senza_nome_3-2);}.cls-3{fill:url(#Sfumatura_senza_nome_3-3);}</style><linearGradient id="Sfumatura_senza_nome_3" x1="23.92" y1="710.11" x2="23.92" y2="792.39" gradientTransform="translate(0 -696.17)" gradientUnits="userSpaceOnUse"><stop offset="0" stop-color="#cf1622"/><stop offset="0.13" stop-color="#cf1622"/><stop offset="0.26" stop-color="#b91622"/><stop offset="0.51" stop-color="#821622"/><stop offset="0.61" stop-color="#66131b"/><stop offset="0.74" stop-color="#430f12"/><stop offset="0.85" stop-color="#2d0d0c"/><stop offset="0.92" stop-color="#250c0a"/><stop offset="1" stop-color="#250c0a"/></linearGradient><linearGradient id="Sfumatura_senza_nome_3-2" x1="35.52" y1="696.39" x2="35.52" y2="765.11" xlink:href="#Sfumatura_senza_nome_3"/><linearGradient id="Sfumatura_senza_nome_3-3" x1="46.49" y1="730.64" x2="46.49" y2="785.46" xlink:href="#Sfumatura_senza_nome_3"/></defs><g id="Livello_2" data-name="Livello 2"><g id="Livello_1-2" data-name="Livello 1"><g id="Livello_2-2" data-name="Livello 2"><g id="Livello_1-2-2" data-name="Livello 1-2"><path class="cls-1" d="M.3,96.22V13.94c15.77,9.17,31.32,18.22,47.23,27.53-3,1.74-5.63,3.38-8.38,4.82-.46.25-1.44-.12-2-.46q-13-7.45-26-14.95c-.48-.27-1-.51-1.75-.9,0,.85-.1,1.51-.1,2.15V88.78a3.21,3.21,0,0,1-1.93,3.37C5.06,93.26,2.84,94.7.3,96.22Z"/><path class="cls-2" d="M70.92,41.47C55,50.72,39.54,59.72,23.72,68.94c0-3.55-.07-6.78.08-10,0-.51.92-1.08,1.53-1.42Q38.17,50.11,51,42.75c.58-.34,1.12-.69,2-1.22a21.2,21.2,0,0,0-1.9-1.28Q26.6,26,2,12A3.13,3.13,0,0,1,.14,8.73C.28,6,.14,3.35.14.22,23.82,14,47.14,27.59,70.92,41.47Z"/><path class="cls-3" d="M21.19,73.57C29.06,69,36.52,64.69,44,60.39q14.45-8.34,28.9-16.61a2.24,2.24,0,0,1,1.83,0c1.61.8,3.14,1.78,4.7,2.71,1.9,1.13,1.9,2.35,0,3.45L18.63,85.47l-6.48,3.82V34.47c2.9,1.66,5.75,3.2,8.46,5,.46.3.53,1.44.53,2.2v28.4C21.19,71.1,21.19,72.15,21.19,73.57Z"/></g></g></g></g></svg>