<svg xmlns="http://www.w3.org/2000/svg" viewBox="0 0 93.24 62.64"><defs><style>.cls-1{fill:none;stroke:#8c131a;stroke-miterlimit:10;stroke-width:2px;}</style></defs><g id="Livello_2" data-name="Livello 2"><g id="Livello_1-2" data-name="Livello 1"><path class="cls-1" d="M40.17,41.09,3.1,4.15A8.71,8.71,0,0,0,1,9.78V52.85a8.78,8.78,0,0,0,8.78,8.79H83.46a8.78,8.78,0,0,0,8.78-8.79V9.78a8.76,8.76,0,0,0-1.67-5.12L54.64,41A10.22,10.22,0,0,1,40.17,41.09Z"/><path class="cls-1" d="M3.1,4.15A8.72,8.72,0,0,1,9.78,1H83.46a8.76,8.76,0,0,1,7.11,3.66"/></g></g></svg>