<svg xmlns="http://www.w3.org/2000/svg" viewBox="0 0 73.82 73.86"><defs><style>.cls-1{fill:#8c131a;}</style></defs><g id="Livello_2" data-name="Livello 2"><g id="Livello_1-2" data-name="Livello 1"><g id="Livello_1-2-2" data-name="Livello 1-2"><path class="cls-1" d="M15.89,0h3.77a2.83,2.83,0,0,1,2.89,2.09q2.81,8.37,5.59,16.75a2.87,2.87,0,0,1-1,3.38c-1.52,1.25-3,2.51-4.58,3.74a.64.64,0,0,0-.26.87l0,0a45.77,45.77,0,0,0,24.6,24.58.66.66,0,0,0,.91-.21l0,0c1.2-1.5,2.43-3,3.65-4.47a2.9,2.9,0,0,1,3.54-1.06L71.6,51.23a2.88,2.88,0,0,1,2.21,3.1c0,2.56.06,5.14-.12,7.69A13.18,13.18,0,0,1,62,73.77a46.47,46.47,0,0,1-12.94-1C30.94,69.09,17.24,59.17,7.86,43.3A55.08,55.08,0,0,1,.46,21.17,55.49,55.49,0,0,1,0,11.88C.36,5.77,5.79.49,11.9,0c1.32-.09,2.66,0,4,0Zm-1,5.71H13A7.48,7.48,0,0,0,5.7,13.16,63.78,63.78,0,0,0,6.35,22,52.22,52.22,0,0,0,17.9,47.93Q34.49,67.85,60.49,68.2a7.37,7.37,0,0,0,7.41-6.08,43.43,43.43,0,0,0,.21-5.35.84.84,0,0,0-.66-1h0q-6-2-11.92-4a.79.79,0,0,0-1,.28C53.23,53.7,52,55.24,50.7,56.77a2.83,2.83,0,0,1-3.44.94q-22.56-8.52-31.11-31a2.83,2.83,0,0,1,1-3.56q2.28-1.89,4.58-3.74a.73.73,0,0,0,.32-.93q-2.07-6.09-4.07-12.2a.64.64,0,0,0-.75-.51h0c-.76,0-1.48,0-2.29,0Z"/></g></g></g></svg>