<svg id="Livello_1" data-name="Livello 1" xmlns="http://www.w3.org/2000/svg" xmlns:xlink="http://www.w3.org/1999/xlink" viewBox="0 0 198.31 40.12"><defs><style>.cls-1,.cls-2,.cls-3{stroke:#fff;stroke-miterlimit:10;stroke-width:0.5px;}.cls-1{fill:url(#Sfumatura_senza_nome);}.cls-2{fill:url(#Sfumatura_senza_nome_2);}.cls-3{fill:url(#Sfumatura_senza_nome_3);}.cls-4{fill:#fff;}</style><linearGradient id="Sfumatura_senza_nome" x1="134.42" y1="-111.02" x2="168.06" y2="-111.02" gradientTransform="matrix(0, 1, 1, 0, 120.72, -128.81)" gradientUnits="userSpaceOnUse"><stop offset="0" stop-color="#cf1622"/><stop offset="0.13" stop-color="#cf1622"/><stop offset="0.26" stop-color="#b91622"/><stop offset="0.51" stop-color="#821622"/><stop offset="0.61" stop-color="#66131b"/><stop offset="0.74" stop-color="#430f12"/><stop offset="0.85" stop-color="#2d0d0c"/><stop offset="0.92" stop-color="#250c0a"/><stop offset="1" stop-color="#250c0a"/></linearGradient><linearGradient id="Sfumatura_senza_nome_2" x1="128.81" y1="-106.26" x2="156.89" y2="-106.26" xlink:href="#Sfumatura_senza_nome"/><linearGradient id="Sfumatura_senza_nome_3" x1="142.82" y1="-101.76" x2="165.23" y2="-101.76" xlink:href="#Sfumatura_senza_nome"/></defs><path class="cls-1" d="M0,39.25V5.61L19.39,16.85c-1.23.71-2.31,1.38-3.44,2-.19.1-.59-.05-.83-.19L4.44,12.52l-.72-.37c0,.35,0,.62,0,.88,0,7.72,0,15.44,0,23.16a1.32,1.32,0,0,1-.79,1.38C2,38,1.05,38.63,0,39.25Z" transform="translate(0.31 0.43)"/><path class="cls-2" d="M29,16.85,9.62,28.08c0-1.45,0-2.77,0-4.08,0-.21.38-.44.63-.58l10.54-6,.82-.5c-.33-.22-.55-.39-.78-.52Q10.8,10.56.72,4.8A1.29,1.29,0,0,1-.06,3.48C0,2.38,0,1.28,0,0Z" transform="translate(0.31 0.43)"/><path class="cls-3" d="M8.58,30l9.35-5.39q5.92-3.41,11.86-6.79a.93.93,0,0,1,.75,0c.66.33,1.29.73,1.93,1.11s.78,1,0,1.41L7.53,34.86,4.87,36.42V14c1.19.68,2.36,1.31,3.47,2,.19.12.22.59.22.9q0,5.8,0,11.61C8.58,29,8.58,29.41,8.58,30Z" transform="translate(0.31 0.43)"/><path class="cls-4" d="M44.67,19.62V6.44h8.27v2h-6V19.63H44.67Zm1.45-5.53v-2h6v2Z" transform="translate(0.31 0.43)"/><path class="cls-4" d="M54.89,19.76a1.46,1.46,0,0,1-1.06-.39,1.42,1.42,0,0,1-.4-1.07,1.35,1.35,0,0,1,1.46-1.46,1.39,1.39,0,0,1,1.06.4,1.46,1.46,0,0,1,.39,1.06,1.42,1.42,0,0,1-.4,1.06A1.46,1.46,0,0,1,54.89,19.76Z" transform="translate(0.31 0.43)"/><path class="cls-4" d="M58.3,19.62V9h2.22v8.73H65.4v1.87Z" transform="translate(0.31 0.43)"/><path class="cls-4" d="M66.74,19.62V9H69v8.73h4.88v1.87Z" transform="translate(0.31 0.43)"/><path class="cls-4" d="M75.18,19.62V9H77.4v10.6Z" transform="translate(0.31 0.43)"/><path class="cls-4" d="M84.05,19.62V6.44h2.7l3.9,9.26h-.31l3.82-9.26h2.7V19.63H94.77V8.52h.48l-3.87,9.22H89.51l-4-9.22h.58v11.1Z" transform="translate(0.31 0.43)"/><path class="cls-4" d="M98.3,19.62,101.73,9H105l3.44,10.6h-2.19l-3-9.66h.23l-3,9.66Zm2.32-2.86L101.1,15h4.47l.48,1.76Z" transform="translate(0.31 0.43)"/><path class="cls-4" d="M109.81,19.62V9.25c.47-.1,1-.19,1.54-.26a13.77,13.77,0,0,1,1.71-.11,5.73,5.73,0,0,1,3.41.84,3,3,0,0,1,1.14,2.57,3.14,3.14,0,0,1-.54,1.88,3.24,3.24,0,0,1-1.54,1.14,6.57,6.57,0,0,1-2.38.38h-.58l-.57,0v4h-2.19Zm3.34-5.57a3,3,0,0,0,1.8-.43,1.56,1.56,0,0,0,.56-1.33,1.6,1.6,0,0,0-.54-1.35,2.78,2.78,0,0,0-1.7-.41c-.24,0-.46,0-.67,0a6,6,0,0,0-.61.09V14l.58,0ZM116,19.62l-3.37-4.9H115l3.44,4.9Z" transform="translate(0.31 0.43)"/><path class="cls-4" d="M121.35,19.62V10.89H118V9h8.92v1.87h-3.35v8.73Z" transform="translate(0.31 0.43)"/><path class="cls-4" d="M132,19.76a5.47,5.47,0,0,1-2.59-.59,4,4,0,0,1-1.72-1.8,6.66,6.66,0,0,1-.61-3,6.68,6.68,0,0,1,.61-3.05,4.11,4.11,0,0,1,1.72-1.8,6,6,0,0,1,5.19,0,4.11,4.11,0,0,1,1.72,1.8,6.71,6.71,0,0,1,.61,3.05,6.66,6.66,0,0,1-.61,3,4.11,4.11,0,0,1-1.72,1.8A5.51,5.51,0,0,1,132,19.76Zm0-1.83a2.71,2.71,0,0,0,1.43-.36,2.23,2.23,0,0,0,.91-1.15,5.64,5.64,0,0,0,.32-2.06,5.87,5.87,0,0,0-.32-2.12,2.26,2.26,0,0,0-.92-1.17,2.7,2.7,0,0,0-1.42-.36,2.64,2.64,0,0,0-1.41.36,2.25,2.25,0,0,0-.91,1.14,5.62,5.62,0,0,0-.32,2.07,5.93,5.93,0,0,0,.32,2.13,2.26,2.26,0,0,0,.91,1.16A2.64,2.64,0,0,0,132,17.93Z" transform="translate(0.31 0.43)"/><path class="cls-4" d="M138.82,19.62V9H141v8.73h4.88v1.87Z" transform="translate(0.31 0.43)"/><path class="cls-4" d="M147.26,19.62V9h2.22v10.6Z" transform="translate(0.31 0.43)"/><path class="cls-4" d="M152,19.62V9h2.2l5.11,7.77h-.35V9H161v10.6h-2.2l-5.11-7.77H154v7.77Z" transform="translate(0.31 0.43)"/><path class="cls-4" d="M163.43,19.62V9h2.22v10.6Z" transform="translate(0.31 0.43)"/><path class="cls-4" d="M174.72,19.76a11.1,11.1,0,0,1-1.52-.11,7.68,7.68,0,0,1-1.39-.32V17.49a10,10,0,0,0,1,.25,9,9,0,0,0,1,.15,7.44,7.44,0,0,0,.91.05,3.93,3.93,0,0,0,1.21-.15,1.11,1.11,0,0,0,.85-1.14,1.2,1.2,0,0,0-.14-.59,1.17,1.17,0,0,0-.49-.43,4.65,4.65,0,0,0-1-.33l-.67-.15a4.21,4.21,0,0,1-2.21-1.09,2.7,2.7,0,0,1-.7-2,3,3,0,0,1,.46-1.67,3.12,3.12,0,0,1,1.44-1.14A6.58,6.58,0,0,1,176,8.89a11,11,0,0,1,1.28.08,8.31,8.31,0,0,1,1.14.21V11a8.5,8.5,0,0,0-1.16-.23,9.71,9.71,0,0,0-1.21-.08,4.54,4.54,0,0,0-1.37.16,1.34,1.34,0,0,0-.71.44,1.21,1.21,0,0,0,.09,1.48,2.76,2.76,0,0,0,1.22.52l.66.15a5.86,5.86,0,0,1,1.73.64,2.51,2.51,0,0,1,1,1,3.35,3.35,0,0,1-.16,3.12A3,3,0,0,1,177,19.35,5.77,5.77,0,0,1,174.72,19.76Z" transform="translate(0.31 0.43)"/><path class="cls-4" d="M180.69,19.62V9.25c.47-.1,1-.19,1.54-.26a13.77,13.77,0,0,1,1.71-.11,5.73,5.73,0,0,1,3.41.84,3,3,0,0,1,1.14,2.57,3.14,3.14,0,0,1-.54,1.88,3.24,3.24,0,0,1-1.54,1.14,6.57,6.57,0,0,1-2.38.38h-.58l-.57,0v4h-2.19ZM184,14.05a3,3,0,0,0,1.8-.43,1.56,1.56,0,0,0,.56-1.33,1.6,1.6,0,0,0-.54-1.35,2.78,2.78,0,0,0-1.7-.41c-.24,0-.46,0-.67,0a6,6,0,0,0-.61.09V14l.58,0Zm2.86,5.57-3.37-4.9h2.39l3.44,4.9Z" transform="translate(0.31 0.43)"/><path class="cls-4" d="M190.9,19.62V9h2.22v8.73H198v1.87Z" transform="translate(0.31 0.43)"/><path class="cls-4" d="M48.25,33.72V25c.37-.07.74-.13,1.11-.17a10.9,10.9,0,0,1,1.17-.06,4.14,4.14,0,0,1,2.66.73,2.79,2.79,0,0,1,.9,2.3,2.84,2.84,0,0,1-.9,2.26,4.21,4.21,0,0,1-2.81.78H49.8l-.58,0v3ZM50.41,30a3.16,3.16,0,0,0,2.08-.55,2.08,2.08,0,0,0,.64-1.68,2.14,2.14,0,0,0-.63-1.72,2.86,2.86,0,0,0-1.91-.54q-.39,0-.72,0l-.65.08v4.3l.58.06Z" transform="translate(0.31 0.43)"/><path class="cls-4" d="M55.66,33.72v-7c.3-.06.62-.1,1-.14a9.73,9.73,0,0,1,1.1-.06A4,4,0,0,1,60,27a1.85,1.85,0,0,1,.75,1.63,1.94,1.94,0,0,1-.36,1.2,2.26,2.26,0,0,1-1.06.73,5.32,5.32,0,0,1-1.71.25h-.51l-.49,0v2.93h-1Zm2-3.6a3.05,3.05,0,0,0,1.69-.36,1.23,1.23,0,0,0,.52-1.09,1.25,1.25,0,0,0-.48-1.11,2.8,2.8,0,0,0-1.55-.34l-.63,0a4.85,4.85,0,0,0-.55.08v2.75l.49,0Zm2.62,3.6-2.62-3.35h1.07l2.65,3.35Z" transform="translate(0.31 0.43)"/><path class="cls-4" d="M62.76,33.72V26.58h4.79v.76H63.71V33H67.6v.76Zm.6-3.27v-.76h3.7v.76Z" transform="translate(0.31 0.43)"/><path class="cls-4" d="M69.06,33.72V26.58h4.76v.77H70v6.37Zm.66-3.18v-.78h3.59v.78Z" transform="translate(0.31 0.43)"/><path class="cls-4" d="M73.66,33.72l2.67-7.14h1.38l2.68,7.14h-1L76.94,27h.14l-2.47,6.72Zm1.46-2.22.22-.77h3.35l.22.77Z" transform="translate(0.31 0.43)"/><path class="cls-4" d="M83.55,33.79c-.22,0-.43,0-.65,0l-.65,0-.65-.07v-7l.67-.11c.24,0,.48-.06.72-.07l.74,0A4.1,4.1,0,0,1,86,27a1.63,1.63,0,0,1,.71,1.44,1.71,1.71,0,0,1-.16.75,1.46,1.46,0,0,1-.5.58,1.91,1.91,0,0,1-.86.31V30a2.48,2.48,0,0,1,.94.3,1.52,1.52,0,0,1,.58.6,1.87,1.87,0,0,1,.2.88,1.76,1.76,0,0,1-.34,1.1,2,2,0,0,1-1.08.68A6.71,6.71,0,0,1,83.55,33.79Zm.16-.7a4.86,4.86,0,0,0,1.36-.15,1.13,1.13,0,0,0,.92-1.2,1.15,1.15,0,0,0-.45-1,2.47,2.47,0,0,0-1.44-.33H82.4V29.7H84a2.37,2.37,0,0,0,1.42-.32,1.09,1.09,0,0,0,.4-.91,1.07,1.07,0,0,0-.45-1,2.84,2.84,0,0,0-1.51-.29l-.68,0a5.32,5.32,0,0,0-.61.08V33l.58,0Z" transform="translate(0.31 0.43)"/><path class="cls-4" d="M90.34,33.79c-.22,0-.43,0-.65,0l-.65,0-.65-.07v-7l.67-.11c.24,0,.48-.06.72-.07l.74,0a4.1,4.1,0,0,1,2.26.48,1.63,1.63,0,0,1,.71,1.44,1.71,1.71,0,0,1-.16.75,1.46,1.46,0,0,1-.5.58,1.91,1.91,0,0,1-.86.31V30a2.48,2.48,0,0,1,.94.3,1.52,1.52,0,0,1,.58.6,1.87,1.87,0,0,1,.2.88,1.76,1.76,0,0,1-.34,1.1,2,2,0,0,1-1.08.68A6.76,6.76,0,0,1,90.34,33.79Zm.16-.7a4.86,4.86,0,0,0,1.36-.15,1.13,1.13,0,0,0,.92-1.2,1.15,1.15,0,0,0-.45-1,2.47,2.47,0,0,0-1.44-.33H89.18V29.7h1.56a2.37,2.37,0,0,0,1.42-.32,1.09,1.09,0,0,0,.4-.91,1.07,1.07,0,0,0-.45-1,2.84,2.84,0,0,0-1.51-.29l-.68,0a5.32,5.32,0,0,0-.61.08V33l.58,0Z" transform="translate(0.31 0.43)"/><path class="cls-4" d="M95.17,33.72v-7c.3-.06.62-.1,1-.14a9.73,9.73,0,0,1,1.1-.06,4,4,0,0,1,2.27.52,1.85,1.85,0,0,1,.75,1.63,1.94,1.94,0,0,1-.36,1.2,2.26,2.26,0,0,1-1.06.73,5.32,5.32,0,0,1-1.71.25h-.51l-.49,0v2.93h-1Zm2-3.6a3.05,3.05,0,0,0,1.69-.36,1.23,1.23,0,0,0,.52-1.09,1.25,1.25,0,0,0-.48-1.11,2.8,2.8,0,0,0-1.55-.34l-.63,0a4.85,4.85,0,0,0-.55.08v2.75l.49,0Zm2.61,3.6-2.62-3.35h1.07l2.65,3.35Z" transform="translate(0.31 0.43)"/><path class="cls-4" d="M102.26,33.72V26.58h1v7.14Z" transform="translate(0.31 0.43)"/><path class="cls-4" d="M108.35,33.81a4.49,4.49,0,0,1-1.87-.36,2.59,2.59,0,0,1-1.22-1.16,4.45,4.45,0,0,1-.43-2.13,4.37,4.37,0,0,1,.43-2.08,2.74,2.74,0,0,1,1.23-1.2,4.42,4.42,0,0,1,1.94-.39,7.58,7.58,0,0,1,.84.05,5,5,0,0,1,.79.15v.81a5.36,5.36,0,0,0-.78-.15,7,7,0,0,0-.8-.05,3.35,3.35,0,0,0-1.45.28,1.88,1.88,0,0,0-.89.91,3.9,3.9,0,0,0-.3,1.67,4,4,0,0,0,.3,1.7,1.81,1.81,0,0,0,.88.89,3.26,3.26,0,0,0,1.39.26,5.42,5.42,0,0,0,.81-.06,7.48,7.48,0,0,0,.83-.19v.81a6,6,0,0,1-.81.19A5.14,5.14,0,0,1,108.35,33.81Z" transform="translate(0.31 0.43)"/><path class="cls-4" d="M110.5,33.72l2.67-7.14h1.38l2.68,7.14h-1L113.78,27h.14l-2.47,6.72ZM112,31.5l.22-.77h3.35l.22.77Z" transform="translate(0.31 0.43)"/><path class="cls-4" d="M119.06,33.72V27.38h-2.5v-.8h6v.8H120v6.34Z" transform="translate(0.31 0.43)"/><path class="cls-4" d="M123.65,33.72V26.58h1v7.14Z" transform="translate(0.31 0.43)"/><path class="cls-4" d="M129.61,33.72V26.58h1v7.14Z" transform="translate(0.31 0.43)"/><path class="cls-4" d="M132.64,33.72V26.58h1l4.23,6h-.2v-6h.91v7.14h-1l-4.23-6h.2v6Z" transform="translate(0.31 0.43)"/><path class="cls-4" d="M146.61,33.81a4.49,4.49,0,0,1-1.87-.36,2.59,2.59,0,0,1-1.22-1.16,4.45,4.45,0,0,1-.43-2.13,4.37,4.37,0,0,1,.43-2.08,2.74,2.74,0,0,1,1.23-1.2,4.42,4.42,0,0,1,1.94-.39,7.58,7.58,0,0,1,.84.05,5,5,0,0,1,.79.15v.81a5.36,5.36,0,0,0-.78-.15,7,7,0,0,0-.8-.05,3.35,3.35,0,0,0-1.45.28,1.88,1.88,0,0,0-.89.91,3.9,3.9,0,0,0-.3,1.67,4,4,0,0,0,.3,1.7,1.81,1.81,0,0,0,.88.89,3.26,3.26,0,0,0,1.39.26,5.42,5.42,0,0,0,.81-.06,7.48,7.48,0,0,0,.83-.19v.81a6,6,0,0,1-.81.19A5.14,5.14,0,0,1,146.61,33.81Z" transform="translate(0.31 0.43)"/><path class="cls-4" d="M149.59,33.72V26.58h4.79v.76h-3.84V33h3.89v.76Zm.6-3.27v-.76h3.7v.76Z" transform="translate(0.31 0.43)"/><path class="cls-4" d="M155.92,33.72V26.58h1.14l2.66,5.4h-.18l2.63-5.4h1.15v7.14h-.91V27.4h.24L160,32.72h-.83l-2.67-5.31h.29v6.31Z" transform="translate(0.31 0.43)"/><path class="cls-4" d="M165.4,33.72V26.58h4.79v.76h-3.84V33h3.89v.76Zm.6-3.27v-.76h3.7v.76Z" transform="translate(0.31 0.43)"/><path class="cls-4" d="M171.71,33.72V26.58h1l4.23,6h-.2v-6h.91v7.14h-1l-4.23-6h.2v6Z" transform="translate(0.31 0.43)"/><path class="cls-4" d="M181.25,33.72V27.38h-2.5v-.8h6v.8h-2.5v6.34Z" transform="translate(0.31 0.43)"/><path class="cls-4" d="M188.14,33.81a3.6,3.6,0,0,1-1.69-.38,2.59,2.59,0,0,1-1.12-1.19,4.79,4.79,0,0,1-.4-2.08,4.69,4.69,0,0,1,.4-2.09,2.59,2.59,0,0,1,1.12-1.19,3.48,3.48,0,0,1,1.69-.38,3.6,3.6,0,0,1,1.69.38A2.59,2.59,0,0,1,191,28.07a4.83,4.83,0,0,1,.4,2.09,4.64,4.64,0,0,1-.4,2.08,2.56,2.56,0,0,1-1.13,1.19A3.62,3.62,0,0,1,188.14,33.81Zm0-.78a2.3,2.3,0,0,0,1.17-.28,1.93,1.93,0,0,0,.78-.9,4.26,4.26,0,0,0,.28-1.67,4.21,4.21,0,0,0-.28-1.7,1.84,1.84,0,0,0-.78-.92,2.36,2.36,0,0,0-1.17-.28,2.3,2.3,0,0,0-1.17.28,1.82,1.82,0,0,0-.77.9,4.3,4.3,0,0,0-.28,1.67,4.41,4.41,0,0,0,.27,1.7,1.87,1.87,0,0,0,.77.92A2.48,2.48,0,0,0,188.14,33Z" transform="translate(0.31 0.43)"/></svg>