<svg xmlns="http://www.w3.org/2000/svg" xmlns:xlink="http://www.w3.org/1999/xlink" viewBox="0 0 145.5 145.5"><defs><style>.cls-1,.cls-2,.cls-3{stroke:#1d1d1b;stroke-width:0.25px;}.cls-1,.cls-2,.cls-3,.cls-4{stroke-miterlimit:10;}.cls-1{fill:url(#Nuovo_campione_sfumatura_1);}.cls-2{fill:url(#Nuovo_campione_sfumatura_1-2);}.cls-3{fill:url(#Nuovo_campione_sfumatura_1-3);}.cls-4{fill:none;stroke-width:2px;stroke:url(#Nuovo_campione_sfumatura_1-4);}</style><linearGradient id="Nuovo_campione_sfumatura_1" x1="67.61" y1="107.25" x2="67.61" y2="24.97" gradientTransform="matrix(1, 0, 0, -1, 0, 145.72)" gradientUnits="userSpaceOnUse"><stop offset="0" stop-color="#cf1622"/><stop offset="0.13" stop-color="#cf1622"/><stop offset="0.26" stop-color="#b91622"/><stop offset="0.51" stop-color="#821622"/><stop offset="0.61" stop-color="#66131b"/><stop offset="0.74" stop-color="#430f12"/><stop offset="0.85" stop-color="#2d0d0c"/><stop offset="0.92" stop-color="#250c0a"/><stop offset="1" stop-color="#250c0a"/></linearGradient><linearGradient id="Nuovo_campione_sfumatura_1-2" x1="79.23" y1="120.97" x2="79.23" y2="52.29" xlink:href="#Nuovo_campione_sfumatura_1"/><linearGradient id="Nuovo_campione_sfumatura_1-3" x1="90.19" y1="86.7" x2="90.19" y2="31.89" xlink:href="#Nuovo_campione_sfumatura_1"/><linearGradient id="Nuovo_campione_sfumatura_1-4" x1="0" y1="72.75" x2="145.5" y2="72.75" gradientTransform="matrix(1, 0, 0, 1, 0, 0)" xlink:href="#Nuovo_campione_sfumatura_1"/></defs><g id="Livello_2" data-name="Livello 2"><g id="Livello_1-2" data-name="Livello 1"><path class="cls-1" d="M44,120.75V38.47C59.77,47.64,75.32,56.69,91.23,66c-3,1.74-5.63,3.38-8.38,4.82-.46.25-1.44-.12-2-.46q-13-7.45-26-14.95c-.48-.27-1-.51-1.75-.9,0,.85-.1,1.51-.1,2.15,0,18.88,0,37.76,0,56.65a3.21,3.21,0,0,1-1.93,3.37C48.76,117.79,46.54,119.23,44,120.75Z"/><path class="cls-2" d="M114.62,66c-15.88,9.25-31.38,18.25-47.2,27.47,0-3.55-.07-6.78.08-10,0-.51.92-1.08,1.53-1.42q12.84-7.41,25.69-14.77c.58-.34,1.12-.69,2-1.22-.8-.54-1.34-1-1.9-1.28Q70.29,50.57,45.74,36.49a3.13,3.13,0,0,1-1.9-3.23c.14-2.69,0-5.38,0-8.51C67.52,38.52,90.84,52.12,114.62,66Z"/><path class="cls-3" d="M64.89,98.1c7.87-4.55,15.33-8.88,22.78-13.18q14.44-8.33,28.9-16.61a2.24,2.24,0,0,1,1.83,0c1.61.8,3.14,1.78,4.7,2.71,1.9,1.13,1.9,2.35,0,3.45L62.33,110l-6.48,3.82V59c2.9,1.66,5.75,3.2,8.46,5,.46.3.53,1.44.53,2.2q0,14.2,0,28.4C64.89,95.63,64.89,96.68,64.89,98.1Z"/><circle class="cls-4" cx="72.75" cy="72.75" r="71.75"/></g></g></svg>