<svg id="Livello_1" data-name="Livello 1" xmlns="http://www.w3.org/2000/svg" xmlns:xlink="http://www.w3.org/1999/xlink" viewBox="0 0 128.4 128.4"><defs><style>.cls-1{fill:none;stroke-miterlimit:10;stroke-width:2px;stroke:url(#Sfumatura_senza_nome_7);}.cls-2{fill:url(#Nuovo_campione_sfumatura_2);}.cls-3{fill:url(#Sfumatura_senza_nome_3);}.cls-4{fill:url(#Sfumatura_senza_nome_5);}</style><linearGradient id="Sfumatura_senza_nome_7" y1="777.68" x2="128.4" y2="777.68" gradientTransform="translate(0 -713.48)" gradientUnits="userSpaceOnUse"><stop offset="0" stop-color="#cf1622"/><stop offset="0.13" stop-color="#cf1622"/><stop offset="0.26" stop-color="#b91622"/><stop offset="0.51" stop-color="#821622"/><stop offset="0.61" stop-color="#66131b"/><stop offset="0.74" stop-color="#430f12"/><stop offset="0.85" stop-color="#2d0d0c"/><stop offset="0.92" stop-color="#250c0a"/><stop offset="1" stop-color="#250c0a"/></linearGradient><linearGradient id="Nuovo_campione_sfumatura_2" x1="40.69" y1="55.45" x2="62.56" y2="55.45" gradientTransform="matrix(1, 0, 0, 1, 0, 0)" xlink:href="#Sfumatura_senza_nome_7"/><linearGradient id="Sfumatura_senza_nome_3" x1="86.85" y1="55.54" x2="64.98" y2="55.36" gradientTransform="matrix(1, 0, 0, 1, 0, 0)" xlink:href="#Sfumatura_senza_nome_7"/><linearGradient id="Sfumatura_senza_nome_5" x1="64.25" y1="27.16" x2="64.16" y2="100.95" gradientTransform="matrix(1, 0, 0, 1, 0, 0)" xlink:href="#Sfumatura_senza_nome_7"/></defs><g id="Livello_2" data-name="Livello 2"><g id="Livello_1-2" data-name="Livello 1-2"><circle class="cls-1" cx="64.2" cy="64.2" r="63.2"/><path class="cls-2" d="M40.69,28.12s15-.27,21.87,5.74V82.79s-1.64-4.92-21.87-3.28Z" transform="translate(0 0)"/><path class="cls-3" d="M87.71,28.12s-15-.27-21.87,5.74V82.79s1.64-4.92,21.87-3.28Z" transform="translate(0 0)"/><path class="cls-4" d="M64.2,90.71c2.73.82,8.2-5.74,8.2-5.74s11.48.28,17.49,0,5.47-2.18,5.47-2.18V37.14a4.9,4.9,0,0,1,5.74,2.73V91.26s-.55,3.55-3.83,3-23.23,0-23.23,0-7.65,3-7.38,6H61.74c.27-3-7.38-6-7.38-6s-20-.6-23.23,0-3.83-3-3.83-3V39.87A4.9,4.9,0,0,1,33,37.14V82.79S32.49,84.7,38.51,85,56,85,56,85,61.47,91.53,64.2,90.71Z" transform="translate(0 0)"/></g></g></svg>