<svg width="166" height="166" viewBox="0 0 166 166" fill="none" xmlns="http://www.w3.org/2000/svg">
<path d="M113.836 87.9729C112.931 87.9729 111.985 87.6602 111.079 87.4368C109.246 86.9981 107.445 86.4157 105.689 85.6942C103.78 84.9401 101.682 84.9792 99.7981 85.8041C97.9142 86.629 96.3778 88.1813 95.4845 90.1624L94.5793 92.1731C90.5715 89.7521 86.8887 86.7452 83.634 83.2366C80.4029 79.7024 77.6339 75.7032 75.4044 71.3512L77.1326 70.1001C78.957 69.1302 80.3865 67.4618 81.1461 65.4161C81.9058 63.3703 81.9418 61.0918 81.2474 59.019C80.5941 57.1085 80.058 55.1531 79.6426 53.1656C79.4369 52.1826 79.2723 51.1549 79.1489 50.1272C78.6492 46.9799 77.1311 44.1298 74.8679 42.09C72.6048 40.0503 69.7453 38.955 66.8045 39.0014H54.4602C52.6869 38.9833 50.9308 39.3804 49.3114 40.1655C47.6921 40.9507 46.2476 42.1055 45.0762 43.5513C43.9048 44.9972 43.034 46.7001 42.5232 48.5442C42.0124 50.3883 41.8735 52.3303 42.1159 54.238C44.308 72.957 52.1808 90.3495 64.4906 103.668C76.8005 116.987 92.8457 125.472 110.092 127.785H111.656C114.69 127.789 117.619 126.581 119.885 124.389C121.187 123.125 122.227 121.575 122.936 119.842C123.645 118.109 124.008 116.232 124 114.335V100.931C123.949 97.8271 122.909 94.8386 121.055 92.4754C119.202 90.1122 116.65 88.5209 113.836 87.9729ZM115.894 114.782C115.893 115.417 115.768 116.044 115.527 116.621C115.285 117.199 114.934 117.715 114.495 118.133C114.035 118.564 113.497 118.886 112.916 119.079C112.335 119.271 111.724 119.33 111.121 119.25C95.7104 117.105 81.3965 109.449 70.4367 97.4915C59.4769 85.5337 52.495 69.9542 50.5923 53.2103C50.5268 52.5558 50.5842 51.8937 50.761 51.2639C50.9379 50.6342 51.2304 50.0499 51.621 49.5464C52.0066 49.0698 52.4813 48.6878 53.0134 48.4258C53.5455 48.1639 54.1229 48.028 54.7071 48.0272H67.0514C68.0083 48.0041 68.9427 48.3439 69.6937 48.9882C70.4447 49.6324 70.9654 50.5409 71.1662 51.5571C71.3308 52.7784 71.5365 53.9848 71.7834 55.1763C72.2587 57.5317 72.8914 59.8464 73.6762 62.102L67.9155 65.0064C67.423 65.2518 66.9799 65.6004 66.6118 66.0323C66.2437 66.4641 65.9577 66.9707 65.7704 67.5228C65.583 68.075 65.498 68.6619 65.5201 69.2499C65.5422 69.8379 65.6711 70.4153 65.8993 70.9491C71.8213 84.7235 82.0179 95.7959 94.7027 102.227C95.7045 102.673 96.8281 102.673 97.8299 102.227C98.3431 102.027 98.8147 101.719 99.2173 101.32C99.6199 100.921 99.9456 100.44 100.175 99.9031L102.727 93.6476C104.854 94.4736 107.025 95.16 109.228 95.7029C110.325 95.971 111.436 96.1944 112.561 96.3732C113.497 96.5912 114.333 97.1566 114.927 97.9721C115.52 98.7877 115.833 99.8023 115.811 100.841L115.894 114.782Z" fill="#D20D0D"/>
<circle cx="83" cy="83" r="82" stroke="#D20D0D" stroke-width="2"/>
</svg>
