<svg xmlns="http://www.w3.org/2000/svg" viewBox="0 0 33.12 39.25"><defs><style>.cls-1{fill:#fff;}</style></defs><g id="Livello_2" data-name="Livello 2"><g id="Livello_1-2" data-name="Livello 1"><path class="cls-1" d="M.06,39.25V5.61L19.45,16.85c-1.23.71-2.31,1.38-3.44,2-.19.1-.59-.05-.83-.19L4.5,12.52l-.72-.37c0,.35,0,.62,0,.88,0,7.72,0,15.44,0,23.16A1.32,1.32,0,0,1,3,37.57C2,38,1.11,38.63.06,39.25Z"/><path class="cls-1" d="M29.05,16.85,9.68,28.08c0-1.45,0-2.77,0-4.08,0-.21.38-.44.63-.58l10.54-6,.82-.5c-.33-.22-.55-.39-.78-.52Q10.86,10.56.78,4.8A1.29,1.29,0,0,1,0,3.48C.06,2.38,0,1.28,0,0Z"/><path class="cls-1" d="M8.64,30,18,24.6q5.93-3.41,11.86-6.79a.93.93,0,0,1,.75,0c.66.33,1.29.73,1.93,1.11s.78,1,0,1.41L7.59,34.86,4.93,36.42V14c1.19.68,2.36,1.31,3.47,2,.19.12.22.59.22.9q0,5.8,0,11.61C8.64,29,8.64,29.41,8.64,30Z"/></g></g></svg>