<svg width="166" height="166" viewBox="0 0 166 166" fill="none" xmlns="http://www.w3.org/2000/svg">
<path d="M93 61.8967H97.75C99.0098 61.8967 100.218 61.3366 101.109 60.3397C102 59.3427 102.5 57.9905 102.5 56.5806C102.5 55.1707 102 53.8185 101.109 52.8215C100.218 51.8246 99.0098 51.2645 97.75 51.2645H93C91.7402 51.2645 90.532 51.8246 89.6412 52.8215C88.7504 53.8185 88.25 55.1707 88.25 56.5806C88.25 57.9905 88.7504 59.3427 89.6412 60.3397C90.532 61.3366 91.7402 61.8967 93 61.8967ZM93 83.1612H97.75C99.0098 83.1612 100.218 82.6011 101.109 81.6041C102 80.6072 102.5 79.255 102.5 77.8451C102.5 76.4351 102 75.083 101.109 74.086C100.218 73.089 99.0098 72.529 97.75 72.529H93C91.7402 72.529 90.532 73.089 89.6412 74.086C88.7504 75.083 88.25 76.4351 88.25 77.8451C88.25 79.255 88.7504 80.6072 89.6412 81.6041C90.532 82.6011 91.7402 83.1612 93 83.1612ZM69.25 61.8967H74C75.2598 61.8967 76.468 61.3366 77.3588 60.3397C78.2496 59.3427 78.75 57.9905 78.75 56.5806C78.75 55.1707 78.2496 53.8185 77.3588 52.8215C76.468 51.8246 75.2598 51.2645 74 51.2645H69.25C67.9902 51.2645 66.782 51.8246 65.8912 52.8215C65.0004 53.8185 64.5 55.1707 64.5 56.5806C64.5 57.9905 65.0004 59.3427 65.8912 60.3397C66.782 61.3366 67.9902 61.8967 69.25 61.8967ZM69.25 83.1612H74C75.2598 83.1612 76.468 82.6011 77.3588 81.6041C78.2496 80.6072 78.75 79.255 78.75 77.8451C78.75 76.4351 78.2496 75.083 77.3588 74.086C76.468 73.089 75.2598 72.529 74 72.529H69.25C67.9902 72.529 66.782 73.089 65.8912 74.086C65.0004 75.083 64.5 76.4351 64.5 77.8451C64.5 79.255 65.0004 80.6072 65.8912 81.6041C66.782 82.6011 67.9902 83.1612 69.25 83.1612ZM126.25 125.69H121.5V35.3161C121.5 33.9062 121 32.554 120.109 31.5571C119.218 30.5601 118.01 30 116.75 30H50.25C48.9902 30 47.782 30.5601 46.8912 31.5571C46.0004 32.554 45.5 33.9062 45.5 35.3161V125.69H40.75C39.4902 125.69 38.282 126.25 37.3912 127.247C36.5004 128.244 36 129.596 36 131.006C36 132.416 36.5004 133.768 37.3912 134.765C38.282 135.762 39.4902 136.322 40.75 136.322H126.25C127.51 136.322 128.718 135.762 129.609 134.765C130.5 133.768 131 132.416 131 131.006C131 129.596 130.5 128.244 129.609 127.247C128.718 126.25 127.51 125.69 126.25 125.69ZM88.25 125.69H78.75V104.426H88.25V125.69ZM112 125.69H97.75V99.1096C97.75 97.6996 97.2496 96.3475 96.3588 95.3505C95.468 94.3535 94.2598 93.7934 93 93.7934H74C72.7402 93.7934 71.532 94.3535 70.6412 95.3505C69.7504 96.3475 69.25 97.6996 69.25 99.1096V125.69H55V40.6322H112V125.69Z" fill="#D20D0D"/>
<circle cx="83" cy="83" r="82" stroke="#D20D0D" stroke-width="2"/>
</svg>
