<svg width="361" height="71" viewBox="0 0 361 71" fill="none" xmlns="http://www.w3.org/2000/svg">
<g clip-path="url(#clip0_530_22)">
<g filter="url(#filter0_d_530_22)">
<path d="M0 70.9999C0 50.6134 0 30.5164 0 10.1479C11.6806 16.9314 23.181 23.6244 34.9518 30.4802C32.7346 31.7645 30.7878 32.9765 28.7509 34.0437C28.4084 34.2246 27.6874 33.9533 27.2548 33.7001C20.8377 30.0279 14.4205 26.3378 8.0034 22.6476C7.64288 22.4486 7.28237 22.2677 6.70555 21.9783C6.6695 22.6114 6.63344 23.0998 6.63344 23.5701C6.63344 37.535 6.61542 51.4998 6.6695 65.4646C6.6695 66.6947 6.34503 67.4002 5.24547 67.9609C3.53303 68.8111 1.89269 69.8784 0 70.9999Z" fill="url(#paint0_linear_530_22)"/>
<path d="M52.2563 30.4803C40.5036 37.318 29.0393 43.9748 17.3406 50.7944C17.3406 48.1715 17.2866 45.7837 17.3947 43.414C17.4127 43.0341 18.0797 42.6181 18.5303 42.3648C24.8573 38.7108 31.1843 35.0749 37.5294 31.439C37.962 31.1857 38.3586 30.9325 39.0075 30.5345C38.4126 30.1366 38.0161 29.829 37.6015 29.5939C25.5063 22.5934 13.411 15.611 1.29779 8.6828C0.288353 8.08586 -0.162289 7.48892 -0.108212 6.29503C-5.76451e-05 4.30522 -0.0721603 2.31541 -0.0721603 0C17.4127 10.1842 34.6633 20.2418 52.2563 30.4803Z" fill="url(#paint1_linear_530_22)"/>
<path d="M15.466 54.2493C21.2883 50.8847 26.8041 47.6829 32.32 44.4992C39.4401 40.393 46.5602 36.2867 53.6984 32.2167C54.0589 32.0177 54.6898 32.0177 55.0503 32.1986C56.24 32.7955 57.3756 33.5191 58.5293 34.2065C59.9353 35.0386 59.9353 35.943 58.5473 36.757C43.5499 45.5303 28.5706 54.2854 13.5733 63.0587C12.0231 63.9632 10.4729 64.8857 8.77844 65.8806C8.77844 52.3137 8.77844 38.9097 8.77844 25.3428C10.9235 26.5728 13.0325 27.7125 15.0333 29.0149C15.3758 29.2319 15.4299 30.0821 15.4299 30.6429C15.4479 37.6434 15.4479 44.6439 15.4479 51.6444C15.466 52.4223 15.466 53.2001 15.466 54.2493Z" fill="url(#paint2_linear_530_22)"/>
</g>
<path d="M80.5206 35.4909V11.6494H95.4279V15.1949H84.5404V35.509H80.5206V35.4909ZM83.1344 25.4876V21.9422H93.9137V25.4876H83.1344Z" fill="#333030"/>
<path d="M98.9428 35.744C98.1497 35.744 97.5188 35.5088 97.0321 35.0385C96.5454 34.5682 96.3111 33.9169 96.3111 33.1029C96.3111 32.2889 96.5454 31.6377 97.0141 31.1674C97.4828 30.6971 98.1317 30.4619 98.9428 30.4619C99.754 30.4619 100.385 30.6971 100.854 31.1855C101.322 31.6739 101.557 32.307 101.557 33.1029C101.557 33.8989 101.322 34.532 100.836 35.0204C100.349 35.4907 99.7179 35.744 98.9428 35.744Z" fill="#333030"/>
<path d="M105.09 35.4909V16.3164H109.091V32.1083H117.888V35.4909H105.09Z" fill="#333030"/>
<path d="M120.303 35.4909V16.3164H124.305V32.1083H133.102V35.4909H120.303Z" fill="#333030"/>
<path d="M135.517 35.4909V16.3164H139.519V35.4909H135.517Z" fill="#333030"/>
<path d="M151.506 35.4909V11.6494H156.373L163.403 28.4H162.844L169.73 11.6494H174.597V35.509H170.829V15.412H171.694L164.719 32.0902H161.348L154.192 15.412H155.237V35.4909H151.506Z" fill="#333030"/>
<path d="M177.192 35.4909L183.375 16.3164H189.197L195.398 35.4909H191.451L186.043 18.0168H186.457L181.068 35.4909H177.192ZM181.374 30.3174L182.239 27.1337H190.297L191.162 30.3174H181.374Z" fill="#333030"/>
<path d="M197.94 35.4908V16.7323C198.787 16.5514 199.706 16.3886 200.716 16.262C201.725 16.1353 202.753 16.063 203.798 16.063C206.52 16.063 208.575 16.5695 209.945 17.5825C211.315 18.5955 212 20.1331 212 22.2314C212 23.5881 211.675 24.7277 211.026 25.6322C210.378 26.5366 209.458 27.2421 208.251 27.6943C207.043 28.1646 205.619 28.3817 203.96 28.3817C203.6 28.3817 203.257 28.3817 202.915 28.3636C202.572 28.3455 202.23 28.3274 201.887 28.2913V35.4727H197.94V35.4908ZM203.96 25.4151C205.439 25.4151 206.52 25.1618 207.205 24.6373C207.89 24.1127 208.214 23.3167 208.214 22.2314C208.214 21.1099 207.89 20.2959 207.241 19.7894C206.592 19.2829 205.565 19.0477 204.177 19.0477C203.744 19.0477 203.348 19.0658 202.969 19.102C202.59 19.1381 202.23 19.1924 201.869 19.2648V25.3246C202.266 25.3608 202.608 25.3789 202.915 25.397C203.185 25.397 203.546 25.4151 203.96 25.4151ZM209.116 35.4908L203.041 26.6271H207.349L213.55 35.4908H209.116Z" fill="#333030"/>
<path d="M218.741 35.4909V19.6991H212.703V16.3164H228.782V19.6991H222.743V35.4909H218.741Z" fill="#333030"/>
<path d="M237.885 35.744C236.1 35.744 234.55 35.3822 233.216 34.6767C231.882 33.9712 230.855 32.8859 230.116 31.4207C229.377 29.9735 229.016 28.1284 229.016 25.9216C229.016 23.6966 229.377 21.8515 230.116 20.4044C230.855 18.9572 231.882 17.8719 233.216 17.1483C234.55 16.4428 236.1 16.0811 237.885 16.0811C239.687 16.0811 241.238 16.4428 242.571 17.1483C243.905 17.8719 244.933 18.9572 245.672 20.4044C246.411 21.8696 246.771 23.6966 246.771 25.9216C246.771 28.1284 246.411 29.9735 245.672 31.4207C244.933 32.8678 243.905 33.9532 242.571 34.6767C241.238 35.3822 239.669 35.744 237.885 35.744ZM237.885 32.4337C238.894 32.4337 239.741 32.2166 240.462 31.7825C241.183 31.3483 241.724 30.6609 242.103 29.7022C242.481 28.7435 242.68 27.5134 242.68 25.9758C242.68 24.384 242.481 23.0997 242.103 22.1409C241.724 21.1641 241.165 20.4586 240.444 20.0245C239.723 19.5904 238.876 19.3733 237.885 19.3733C236.893 19.3733 236.046 19.5904 235.343 20.0245C234.622 20.4586 234.081 21.146 233.703 22.0867C233.324 23.0273 233.126 24.2754 233.126 25.8311C233.126 27.4411 233.324 28.7073 233.703 29.6841C234.081 30.6428 234.622 31.3483 235.343 31.7825C236.046 32.2166 236.893 32.4337 237.885 32.4337Z" fill="#333030"/>
<path d="M250.232 35.4909V16.3164H254.234V32.1083H263.031V35.4909H250.232Z" fill="#333030"/>
<path d="M265.446 35.4909V16.3164H269.448V35.4909H265.446Z" fill="#333030"/>
<path d="M273.9 35.4909V16.3164H277.866L287.077 30.3717H286.446V16.3164H290.159V35.4909H286.193L276.982 21.4356H277.595V35.4909H273.9Z" fill="#333030"/>
<path d="M294.593 35.4909V16.3164H298.595V35.4909H294.593Z" fill="#333030"/>
<path d="M314.944 35.744C314.025 35.744 313.124 35.6716 312.205 35.545C311.285 35.4184 310.456 35.2194 309.699 34.9661V31.6377C310.276 31.8186 310.853 31.9633 311.465 32.09C312.078 32.2166 312.673 32.307 313.268 32.3613C313.863 32.4337 314.404 32.4518 314.908 32.4518C315.828 32.4518 316.549 32.3613 317.089 32.1804C317.63 31.9995 318.027 31.7282 318.261 31.3845C318.495 31.0408 318.622 30.6067 318.622 30.1183C318.622 29.7022 318.532 29.3404 318.369 29.051C318.207 28.7616 317.901 28.4902 317.486 28.2732C317.053 28.0561 316.459 27.8571 315.683 27.6762L314.476 27.4049C312.655 26.9888 311.321 26.3376 310.492 25.4332C309.645 24.5468 309.23 23.371 309.23 21.9058C309.23 20.7661 309.501 19.7532 310.059 18.8849C310.618 18.0166 311.483 17.3292 312.655 16.8227C313.827 16.3343 315.323 16.0811 317.18 16.0811C317.955 16.0811 318.712 16.1353 319.487 16.2258C320.244 16.3162 320.929 16.4428 321.542 16.6056V19.934C320.875 19.7532 320.172 19.6084 319.451 19.518C318.73 19.4276 318.009 19.3733 317.27 19.3733C316.224 19.3733 315.395 19.4637 314.8 19.6627C314.205 19.8436 313.773 20.1149 313.52 20.4586C313.268 20.8023 313.142 21.2003 313.142 21.6706C313.142 22.2856 313.322 22.774 313.683 23.1358C314.043 23.4976 314.782 23.8051 315.882 24.0765L317.071 24.3478C318.351 24.6372 319.379 25.0171 320.19 25.5055C321.001 25.9758 321.578 26.5909 321.956 27.2963C322.335 28.0199 322.515 28.8882 322.515 29.8831C322.515 31.0408 322.227 32.0719 321.668 32.9402C321.109 33.8265 320.262 34.5139 319.126 35.0023C318.027 35.4907 316.621 35.744 314.944 35.744Z" fill="#333030"/>
<path d="M325.706 35.4908V16.7323C326.553 16.5514 327.472 16.3886 328.482 16.262C329.491 16.1353 330.519 16.063 331.564 16.063C334.286 16.063 336.341 16.5695 337.711 17.5825C339.081 18.5955 339.766 20.1331 339.766 22.2314C339.766 23.5881 339.441 24.7277 338.792 25.6322C338.143 26.5366 337.224 27.2421 336.016 27.6943C334.809 28.1646 333.385 28.3817 331.726 28.3817C331.366 28.3817 331.023 28.3817 330.681 28.3636C330.338 28.3455 329.996 28.3274 329.653 28.2913V35.4727H325.706V35.4908ZM331.726 25.4151C333.204 25.4151 334.286 25.1618 334.971 24.6373C335.656 24.1127 335.98 23.3167 335.98 22.2314C335.98 21.1099 335.656 20.2959 335.007 19.7894C334.358 19.2829 333.331 19.0477 331.943 19.0477C331.51 19.0477 331.113 19.0658 330.735 19.102C330.356 19.1381 329.996 19.1924 329.635 19.2648V25.3246C330.032 25.3608 330.374 25.3789 330.681 25.397C330.969 25.397 331.312 25.4151 331.726 25.4151ZM336.882 35.4908L330.807 26.6271H335.115L341.316 35.4908H336.882Z" fill="#333030"/>
<path d="M344.11 35.4909V16.3164H348.112V32.1083H356.908V35.4909H344.11Z" fill="#333030"/>
<path d="M86.9738 60.9965V45.1685C87.6408 45.0419 88.3077 44.9333 88.9747 44.861C89.6416 44.7886 90.3446 44.7524 91.0837 44.7524C93.1927 44.7524 94.797 45.1866 95.8785 46.073C96.96 46.9593 97.5008 48.3341 97.5008 50.2335C97.5008 52.0062 96.96 53.381 95.8785 54.3216C94.797 55.2623 93.1206 55.7326 90.8133 55.7326C90.4347 55.7326 90.0923 55.7326 89.7678 55.7145C89.4433 55.6964 89.0828 55.6783 88.7223 55.6421V60.9965H86.9738ZM90.8674 54.3035C92.5978 54.3035 93.8416 53.9779 94.6167 53.3086C95.3918 52.6393 95.7703 51.6444 95.7703 50.2696C95.7703 48.8406 95.3918 47.8095 94.6347 47.1583C93.8776 46.5071 92.742 46.1815 91.1918 46.1815C90.7232 46.1815 90.2905 46.1996 89.894 46.2358C89.4974 46.2719 89.1008 46.3262 88.7223 46.3805V54.1588C89.0828 54.2131 89.4253 54.2493 89.7678 54.2673C90.1103 54.2854 90.4708 54.3035 90.8674 54.3035Z" fill="#333030"/>
<path d="M100.331 60.9964V48.3159C100.872 48.2073 101.448 48.135 102.079 48.0626C102.71 47.9903 103.377 47.9541 104.062 47.9541C105.901 47.9541 107.253 48.2616 108.154 48.8947C109.055 49.5279 109.506 50.5047 109.506 51.8433C109.506 52.7116 109.29 53.4351 108.857 54.014C108.424 54.5928 107.775 55.027 106.946 55.3345C106.099 55.6239 105.072 55.7867 103.864 55.7867C103.539 55.7867 103.233 55.7867 102.945 55.7686C102.656 55.7505 102.35 55.7324 102.061 55.7144V61.0145H100.331V60.9964ZM103.864 54.4843C105.27 54.4843 106.279 54.2672 106.91 53.8331C107.541 53.3989 107.848 52.7477 107.848 51.8614C107.848 50.9207 107.559 50.2514 106.982 49.8535C106.405 49.4555 105.468 49.2384 104.188 49.2384C103.756 49.2384 103.377 49.2565 103.053 49.2746C102.71 49.3108 102.386 49.347 102.061 49.4193V54.3938C102.404 54.4119 102.692 54.43 102.945 54.4481C103.197 54.4662 103.503 54.4843 103.864 54.4843ZM108.587 60.9964L103.864 54.9365H105.793L110.569 60.9964H108.587Z" fill="#333030"/>
<path d="M113.129 60.9967V48.0811H121.763V49.4558H114.841V59.6219H121.853V60.9967H113.129ZM114.211 55.0816V53.7068H120.88V55.0816H114.211Z" fill="#333030"/>
<path d="M124.485 60.9967V48.0811H133.065V49.4739H126.234V60.9967H124.485ZM125.675 55.2444V53.8334H132.146V55.2444H125.675Z" fill="#333030"/>
<path d="M132.777 60.9967L137.59 48.0811H140.077L144.908 60.9967H143.124L138.689 48.8408H138.942L134.489 60.9967H132.777ZM135.409 56.9809L135.805 55.5881H141.844L142.241 56.9809H135.409Z" fill="#333030"/>
<path d="M150.604 61.123C150.208 61.123 149.829 61.123 149.433 61.0869C149.036 61.0688 148.64 61.0507 148.261 61.0145C147.865 60.9783 147.486 60.9421 147.089 60.8879V48.2978C147.468 48.2255 147.883 48.1531 148.297 48.0988C148.73 48.0446 149.162 47.9903 149.595 47.9722C150.028 47.9541 150.478 47.936 150.929 47.936C152.804 47.936 154.155 48.2255 155.003 48.8043C155.85 49.3832 156.283 50.2514 156.283 51.4092C156.283 51.8976 156.192 52.3498 155.994 52.7658C155.796 53.1819 155.507 53.5256 155.093 53.815C154.696 54.1044 154.174 54.2853 153.543 54.3758L153.561 54.2672C154.228 54.3577 154.804 54.5386 155.255 54.8099C155.706 55.0813 156.066 55.443 156.301 55.8953C156.535 56.3475 156.661 56.8721 156.661 57.4871C156.661 58.265 156.463 58.9343 156.048 59.4769C155.652 60.0196 155.003 60.4357 154.101 60.707C153.236 60.9783 152.065 61.123 150.604 61.123ZM150.893 59.8568C151.938 59.8568 152.749 59.7664 153.344 59.5855C153.939 59.4046 154.372 59.1332 154.624 58.7715C154.877 58.4097 155.003 57.9574 155.003 57.4148C155.003 56.6188 154.732 56.0219 154.192 55.6239C153.651 55.226 152.786 55.027 151.596 55.027H148.531V53.7246H151.343C152.569 53.7246 153.416 53.5256 153.903 53.1457C154.39 52.7658 154.624 52.2051 154.624 51.4996C154.624 50.7037 154.354 50.1248 153.813 49.763C153.272 49.4013 152.371 49.2385 151.091 49.2385C150.659 49.2385 150.244 49.2565 149.865 49.2746C149.469 49.3108 149.108 49.347 148.766 49.4193V59.7483C149.126 59.7844 149.469 59.8206 149.811 59.8387C150.154 59.8387 150.514 59.8568 150.893 59.8568Z" fill="#333030"/>
<path d="M162.844 61.123C162.447 61.123 162.069 61.123 161.672 61.0869C161.276 61.0688 160.879 61.0507 160.501 61.0145C160.104 60.9783 159.725 60.9421 159.329 60.8879V48.2978C159.707 48.2255 160.122 48.1531 160.537 48.0988C160.969 48.0446 161.402 47.9903 161.834 47.9722C162.267 47.9541 162.718 47.936 163.168 47.936C165.043 47.936 166.395 48.2255 167.242 48.8043C168.089 49.3832 168.522 50.2514 168.522 51.4092C168.522 51.8976 168.432 52.3498 168.234 52.7658C168.035 53.1819 167.747 53.5256 167.332 53.815C166.936 54.1044 166.413 54.2853 165.782 54.3758L165.8 54.2672C166.467 54.3577 167.044 54.5386 167.494 54.8099C167.945 55.0813 168.306 55.443 168.54 55.8953C168.774 56.3475 168.9 56.8721 168.9 57.4871C168.9 58.265 168.702 58.9343 168.288 59.4769C167.891 60.0196 167.242 60.4357 166.341 60.707C165.476 60.9783 164.286 61.123 162.844 61.123ZM163.132 59.8568C164.178 59.8568 164.989 59.7664 165.584 59.5855C166.179 59.4046 166.611 59.1332 166.864 58.7715C167.116 58.4097 167.242 57.9574 167.242 57.4148C167.242 56.6188 166.972 56.0219 166.431 55.6239C165.89 55.226 165.025 55.027 163.835 55.027H160.753V53.7246H163.565C164.791 53.7246 165.638 53.5256 166.125 53.1457C166.611 52.7658 166.846 52.2051 166.846 51.4996C166.846 50.7037 166.575 50.1248 166.034 49.763C165.494 49.4013 164.592 49.2385 163.313 49.2385C162.88 49.2385 162.465 49.2565 162.087 49.2746C161.69 49.3108 161.33 49.347 160.987 49.4193V59.7483C161.348 59.7844 161.69 59.8206 162.033 59.8387C162.393 59.8387 162.754 59.8568 163.132 59.8568Z" fill="#333030"/>
<path d="M171.55 60.9964V48.3159C172.091 48.2073 172.668 48.135 173.299 48.0626C173.93 47.9903 174.597 47.9541 175.282 47.9541C177.12 47.9541 178.472 48.2616 179.373 48.8947C180.275 49.5279 180.725 50.5047 180.725 51.8433C180.725 52.7116 180.509 53.4351 180.076 54.014C179.644 54.5928 178.995 55.027 178.166 55.3345C177.318 55.6239 176.291 55.7867 175.083 55.7867C174.759 55.7867 174.452 55.7867 174.164 55.7686C173.876 55.7505 173.569 55.7324 173.281 55.7144V61.0145H171.55V60.9964ZM175.083 54.4843C176.489 54.4843 177.499 54.2672 178.13 53.8331C178.761 53.3989 179.067 52.7477 179.067 51.8614C179.067 50.9207 178.779 50.2514 178.202 49.8535C177.625 49.4555 176.688 49.2384 175.408 49.2384C174.975 49.2384 174.597 49.2565 174.272 49.2746C173.93 49.3108 173.605 49.347 173.281 49.4193V54.3938C173.623 54.4119 173.912 54.43 174.164 54.4481C174.416 54.4662 174.723 54.4843 175.083 54.4843ZM179.788 60.9964L175.065 54.9365H176.994L181.771 60.9964H179.788Z" fill="#333030"/>
<path d="M184.33 60.9967V48.0811H186.079V60.9967H184.33Z" fill="#333030"/>
<path d="M195.308 61.1592C194.01 61.1592 192.893 60.9422 191.937 60.508C190.982 60.0739 190.261 59.3684 189.738 58.4097C189.215 57.451 188.963 56.1666 188.963 54.5567C188.963 53.0191 189.215 51.771 189.738 50.7941C190.261 49.8173 191 49.0938 191.955 48.6234C192.929 48.1531 194.082 47.918 195.452 47.918C195.975 47.918 196.48 47.9541 196.966 48.0084C197.453 48.0627 197.94 48.1531 198.39 48.2798V49.745C197.922 49.6184 197.453 49.5279 196.984 49.4736C196.516 49.4194 196.029 49.3832 195.542 49.3832C194.515 49.3832 193.65 49.546 192.929 49.8897C192.226 50.2334 191.685 50.7761 191.324 51.5358C190.964 52.2955 190.784 53.2905 190.784 54.5567C190.784 55.8591 190.964 56.8721 191.324 57.6319C191.685 58.3916 192.226 58.9162 192.911 59.2418C193.596 59.5674 194.443 59.7121 195.416 59.7121C195.921 59.7121 196.39 59.6759 196.876 59.6036C197.345 59.5312 197.85 59.4046 198.372 59.2599V60.7251C197.922 60.8698 197.435 60.9783 196.912 61.0688C196.39 61.1592 195.885 61.1592 195.308 61.1592Z" fill="#333030"/>
<path d="M199.184 60.9967L203.996 48.0811H206.484L211.315 60.9967H209.548L205.096 48.8408H205.348L200.896 60.9967H199.184ZM201.815 56.9809L202.212 55.5881H208.251L208.647 56.9809H201.815Z" fill="#333030"/>
<path d="M214.614 60.9967V49.5282H210.107V48.0811H220.886V49.5282H216.38V60.9967H214.614Z" fill="#333030"/>
<path d="M222.887 60.9967V48.0811H224.636V60.9967H222.887Z" fill="#333030"/>
<path d="M233.631 60.9967V48.0811H235.379V60.9967H233.631Z" fill="#333030"/>
<path d="M239.092 60.9967V48.0811H240.859L248.484 58.9707H248.123V48.0811H249.764V60.9967H247.997L240.372 50.107H240.733V60.9967H239.092Z" fill="#333030"/>
<path d="M264.274 61.1592C262.976 61.1592 261.859 60.9422 260.903 60.508C259.948 60.0739 259.227 59.3684 258.704 58.4097C258.182 57.451 257.929 56.1666 257.929 54.5567C257.929 53.0191 258.182 51.771 258.704 50.7941C259.227 49.8173 259.966 49.0938 260.921 48.6234C261.895 48.1531 263.048 47.918 264.418 47.918C264.941 47.918 265.446 47.9541 265.933 48.0084C266.419 48.0627 266.906 48.1531 267.357 48.2798V49.745C266.888 49.6184 266.419 49.5279 265.951 49.4736C265.482 49.4194 264.995 49.3832 264.509 49.3832C263.481 49.3832 262.616 49.546 261.895 49.8897C261.192 50.2334 260.651 50.7761 260.291 51.5358C259.93 52.2955 259.75 53.2905 259.75 54.5567C259.75 55.8591 259.93 56.8721 260.291 57.6319C260.651 58.3916 261.192 58.9162 261.877 59.2418C262.562 59.5674 263.409 59.7121 264.382 59.7121C264.887 59.7121 265.356 59.6759 265.842 59.6036C266.311 59.5312 266.816 59.4046 267.339 59.2599V60.7251C266.888 60.8698 266.401 60.9783 265.879 61.0688C265.356 61.1592 264.851 61.1592 264.274 61.1592Z" fill="#333030"/>
<path d="M269.646 60.9967V48.0811H278.28V49.4558H271.358V59.6219H278.37V60.9967H269.646ZM270.727 55.0816V53.7068H277.397V55.0816H270.727Z" fill="#333030"/>
<path d="M281.056 60.9967V48.0811H283.111L287.906 57.8492H287.581L292.322 48.0811H294.395V60.9967H292.755V49.5644H293.187L288.465 59.1878H286.969L282.156 49.5825H282.678V60.9967H281.056Z" fill="#333030"/>
<path d="M298.144 60.9967V48.0811H306.779V49.4558H299.857V59.6219H306.869V60.9967H298.144ZM299.226 55.0816V53.7068H305.896V55.0816H299.226Z" fill="#333030"/>
<path d="M309.519 60.9967V48.0811H311.285L318.91 58.9707H318.55V48.0811H320.19V60.9967H318.423L310.798 50.107H311.159V60.9967H309.519Z" fill="#333030"/>
<path d="M326.715 60.9967V49.5282H322.209V48.0811H332.988V49.5282H328.482V60.9967H326.715Z" fill="#333030"/>
<path d="M339.135 61.1592C337.963 61.1592 336.954 60.9241 336.088 60.4718C335.223 60.0015 334.538 59.296 334.07 58.3192C333.601 57.3424 333.349 56.0943 333.349 54.5567C333.349 53.0191 333.583 51.7528 334.07 50.776C334.556 49.7992 335.223 49.0757 336.088 48.6234C336.954 48.1531 337.963 47.936 339.135 47.936C340.306 47.936 341.316 48.1712 342.181 48.6234C343.046 49.0937 343.731 49.7992 344.2 50.776C344.669 51.7528 344.921 53.0191 344.921 54.5567C344.921 56.0943 344.687 57.3424 344.2 58.3192C343.713 59.296 343.046 60.0196 342.163 60.4718C341.28 60.9241 340.288 61.1592 339.135 61.1592ZM339.135 59.7483C339.946 59.7483 340.649 59.5855 341.244 59.2418C341.839 58.8981 342.307 58.3554 342.65 57.6137C342.974 56.854 343.155 55.8591 343.155 54.5929C343.155 53.3085 342.992 52.2774 342.65 51.5177C342.325 50.7579 341.857 50.1972 341.244 49.8535C340.631 49.5098 339.928 49.347 339.135 49.347C338.324 49.347 337.621 49.5098 337.026 49.8535C336.431 50.1972 335.962 50.7218 335.638 51.4815C335.313 52.2413 335.133 53.2542 335.133 54.5024C335.133 55.7867 335.295 56.8178 335.62 57.5776C335.944 58.3373 336.413 58.8981 337.008 59.2418C337.621 59.5674 338.324 59.7483 339.135 59.7483Z" fill="#333030"/>
</g>
<defs>
<filter id="filter0_d_530_22" x="-4.11255" y="0" width="67.6986" height="79" filterUnits="userSpaceOnUse" color-interpolation-filters="sRGB">
<feFlood flood-opacity="0" result="BackgroundImageFix"/>
<feColorMatrix in="SourceAlpha" type="matrix" values="0 0 0 0 0 0 0 0 0 0 0 0 0 0 0 0 0 0 127 0" result="hardAlpha"/>
<feOffset dy="4"/>
<feGaussianBlur stdDeviation="2"/>
<feComposite in2="hardAlpha" operator="out"/>
<feColorMatrix type="matrix" values="0 0 0 0 0 0 0 0 0 0 0 0 0 0 0 0 0 0 0.25 0"/>
<feBlend mode="normal" in2="BackgroundImageFix" result="effect1_dropShadow_530_22"/>
<feBlend mode="normal" in="SourceGraphic" in2="effect1_dropShadow_530_22" result="shape"/>
</filter>
<linearGradient id="paint0_linear_530_22" x1="17.4784" y1="10.1452" x2="17.4784" y2="70.9927" gradientUnits="userSpaceOnUse">
<stop stop-color="#CF1622"/>
<stop offset="0.1265" stop-color="#CF1622"/>
<stop offset="0.2568" stop-color="#B91622"/>
<stop offset="0.5145" stop-color="#821622"/>
<stop offset="0.6056" stop-color="#66131B"/>
<stop offset="0.7393" stop-color="#430F12"/>
<stop offset="0.8487" stop-color="#2D0D0C"/>
<stop offset="0.9196" stop-color="#250C0A"/>
<stop offset="1" stop-color="#250C0A"/>
</linearGradient>
<linearGradient id="paint1_linear_530_22" x1="26.0739" y1="0" x2="26.0739" y2="50.796" gradientUnits="userSpaceOnUse">
<stop stop-color="#CF1622"/>
<stop offset="0.1265" stop-color="#CF1622"/>
<stop offset="0.2568" stop-color="#B91622"/>
<stop offset="0.5145" stop-color="#821622"/>
<stop offset="0.6056" stop-color="#66131B"/>
<stop offset="0.7393" stop-color="#430F12"/>
<stop offset="0.8487" stop-color="#2D0D0C"/>
<stop offset="0.9196" stop-color="#250C0A"/>
<stop offset="1" stop-color="#250C0A"/>
</linearGradient>
<linearGradient id="paint2_linear_530_22" x1="34.2089" y1="25.346" x2="34.2089" y2="65.892" gradientUnits="userSpaceOnUse">
<stop stop-color="#CF1622"/>
<stop offset="0.1265" stop-color="#CF1622"/>
<stop offset="0.2568" stop-color="#B91622"/>
<stop offset="0.5145" stop-color="#821622"/>
<stop offset="0.6056" stop-color="#66131B"/>
<stop offset="0.7393" stop-color="#430F12"/>
<stop offset="0.8487" stop-color="#2D0D0C"/>
<stop offset="0.9196" stop-color="#250C0A"/>
<stop offset="1" stop-color="#250C0A"/>
</linearGradient>
<clipPath id="clip0_530_22">
<rect width="361" height="71" fill="white"/>
</clipPath>
</defs>
</svg>
