<svg xmlns="http://www.w3.org/2000/svg" viewBox="0 0 158 282.97"><defs><style>.cls-1{fill:#8c181b;}</style></defs><g id="Livello_2" data-name="Livello 2"><g id="Livello_1-2" data-name="Livello 1"><polygon class="cls-1" points="7.93 113.77 79 233.23 150.06 113.77 7.93 113.77"/><path class="cls-1" d="M79,0a79,79,0,1,0,79,79A79,79,0,0,0,79,0ZM78,110a29.5,29.5,0,1,1,29.5-29.5A29.5,29.5,0,0,1,78,110Z"/><path class="cls-1" d="M90.89,226.49,79,246.47l-11.89-20C38,229,16,240.57,16,254.47,16,270.21,44.19,283,79,283s63-12.76,63-28.5C142,240.57,120,229,90.89,226.49Z"/></g></g></svg>