<svg xmlns="http://www.w3.org/2000/svg" xmlns:xlink="http://www.w3.org/1999/xlink" viewBox="0 0 128.4 128.4"><defs><style>.cls-1{fill:none;stroke-miterlimit:10;stroke-width:2px;stroke:url(#Sfumatura_senza_nome_7);}.cls-2{fill:url(#Nuovo_campione_sfumatura_2);}</style><linearGradient id="Sfumatura_senza_nome_7" y1="777.68" x2="128.4" y2="777.68" gradientTransform="translate(0 -713.48)" gradientUnits="userSpaceOnUse"><stop offset="0" stop-color="#cf1622"/><stop offset="0.13" stop-color="#cf1622"/><stop offset="0.26" stop-color="#b91622"/><stop offset="0.51" stop-color="#821622"/><stop offset="0.61" stop-color="#66131b"/><stop offset="0.74" stop-color="#430f12"/><stop offset="0.85" stop-color="#2d0d0c"/><stop offset="0.92" stop-color="#250c0a"/><stop offset="1" stop-color="#250c0a"/></linearGradient><linearGradient id="Nuovo_campione_sfumatura_2" x1="29.29" y1="64.2" x2="103.11" y2="64.2" gradientTransform="matrix(1, 0, 0, 1, 0, 0)" xlink:href="#Sfumatura_senza_nome_7"/></defs><g id="Livello_2" data-name="Livello 2"><g id="Livello_1-2" data-name="Livello 1"><circle class="cls-1" cx="64.2" cy="64.2" r="63.2"/><path class="cls-2" d="M45.19,27.25c1.26,0,2.51,0,3.77,0a2.82,2.82,0,0,1,2.89,2.09q2.81,8.37,5.59,16.75a2.87,2.87,0,0,1-1,3.38c-1.52,1.25-3,2.51-4.58,3.74a.64.64,0,0,0-.23.92A45.77,45.77,0,0,0,76.23,78.71a.66.66,0,0,0,.93-.24c1.2-1.5,2.43-3,3.65-4.47a2.9,2.9,0,0,1,3.54-1.06l16.55,5.52a2.88,2.88,0,0,1,2.21,3.1c0,2.56.06,5.14-.12,7.69A13.19,13.19,0,0,1,91.3,101a46.49,46.49,0,0,1-12.94-1c-18.12-3.68-31.82-13.6-41.2-29.47a55.18,55.18,0,0,1-7.4-22.13,56.58,56.58,0,0,1-.42-9.29c.32-6.11,5.75-11.39,11.86-11.84,1.32-.09,2.66,0,4,0Zm-1,5.71h0c-.61,0-1.23,0-1.85,0A7.48,7.48,0,0,0,35,40.39a63.67,63.67,0,0,0,.65,8.84A52.25,52.25,0,0,0,47.2,75.16Q63.79,95.08,89.79,95.43a7.37,7.37,0,0,0,7.41-6.08A44.56,44.56,0,0,0,97.41,84a.84.84,0,0,0-.71-1q-6-1.95-11.92-4a.78.78,0,0,0-1,.28C82.53,80.93,81.26,82.47,80,84a2.82,2.82,0,0,1-3.44.94Q54,76.42,45.45,53.89a2.83,2.83,0,0,1,.95-3.56q2.28-1.89,4.58-3.74a.73.73,0,0,0,.32-.93q-2.07-6.09-4.07-12.2a.64.64,0,0,0-.75-.51C45.72,33,45,33,44.19,33Z"/></g></g></svg>