<svg xmlns="http://www.w3.org/2000/svg" xmlns:xlink="http://www.w3.org/1999/xlink" viewBox="0 0 128.41 128.41"><defs><style>.cls-1{fill:url(#Nuovo_campione_sfumatura_1);}.cls-2{fill:url(#Nuovo_campione_sfumatura_1-2);}.cls-3{fill:url(#Nuovo_campione_sfumatura_1-3);}.cls-4{fill:url(#Nuovo_campione_sfumatura_1-4);}.cls-5{fill:url(#Nuovo_campione_sfumatura_1-5);}.cls-6{fill:url(#Nuovo_campione_sfumatura_1-6);}.cls-7{fill:none;stroke-miterlimit:10;stroke-width:2px;stroke:url(#Nuovo_campione_sfumatura_1-7);}</style><linearGradient id="Nuovo_campione_sfumatura_1" x1="25.98" y1="62.3" x2="42.04" y2="62.3" gradientUnits="userSpaceOnUse"><stop offset="0" stop-color="#cf1622"/><stop offset="0.13" stop-color="#cf1622"/><stop offset="0.26" stop-color="#b91622"/><stop offset="0.51" stop-color="#821622"/><stop offset="0.61" stop-color="#66131b"/><stop offset="0.74" stop-color="#430f12"/><stop offset="0.85" stop-color="#2d0d0c"/><stop offset="0.92" stop-color="#250c0a"/><stop offset="1" stop-color="#250c0a"/></linearGradient><linearGradient id="Nuovo_campione_sfumatura_1-2" x1="46.05" y1="71.14" x2="111.98" y2="71.14" xlink:href="#Nuovo_campione_sfumatura_1"/><linearGradient id="Nuovo_campione_sfumatura_1-3" x1="43.67" y1="30" x2="66.63" y2="30" xlink:href="#Nuovo_campione_sfumatura_1"/><linearGradient id="Nuovo_campione_sfumatura_1-4" x1="48.73" y1="75.76" x2="59.1" y2="75.76" xlink:href="#Nuovo_campione_sfumatura_1"/><linearGradient id="Nuovo_campione_sfumatura_1-5" x1="69.56" y1="75.76" x2="79.94" y2="75.76" xlink:href="#Nuovo_campione_sfumatura_1"/><linearGradient id="Nuovo_campione_sfumatura_1-6" x1="89.81" y1="75.76" x2="100.18" y2="75.76" xlink:href="#Nuovo_campione_sfumatura_1"/><linearGradient id="Nuovo_campione_sfumatura_1-7" x1="0" y1="64.2" x2="128.41" y2="64.2" gradientTransform="matrix(1, 0, 0, -1, 0, 128.41)" xlink:href="#Nuovo_campione_sfumatura_1"/></defs><g id="Livello_2" data-name="Livello 2"><g id="Livello_1-2" data-name="Livello 1"><path class="cls-1" d="M30,94.5H42V36.61c-.67-8-9.37-6.36-9.37-6.36-6,1-4.69,5-4.69,5L26,94.5Z"/><path class="cls-2" d="M46.05,63.88l14.73-8v11h4.85l17.57-11v7.86c0,2.51,2.51,4,2.51,4h2l17.06-10.88V87.64L46.05,86.8v7.7h59.4C110.81,94.33,112,88,112,88V51c-.34-3.18-3.68-3.18-3.68-3.18L89.89,59.5v-9c0-3.18-3.85-2.68-3.85-2.68L66.63,59.5,67.14,50c.16-2.34-3.35-2.2-3.35-2.2L46.05,56Z"/><path class="cls-3" d="M44.72,34.6H61.61c4.19.17,5-7.36,5-7.36V25.4c0,6.36-21.91,4.6-21.91,4.6C42.37,29.92,44.72,34.6,44.72,34.6Z"/><circle class="cls-4" cx="53.92" cy="75.76" r="5.19"/><circle class="cls-5" cx="74.75" cy="75.76" r="5.19"/><circle class="cls-6" cx="94.99" cy="75.76" r="5.19"/><circle class="cls-7" cx="64.2" cy="64.2" r="63.2"/></g></g></svg>