<svg xmlns="http://www.w3.org/2000/svg" viewBox="0 0 198.32 40.12"><defs><style>.cls-1,.cls-2{fill:#fff;}.cls-1{stroke:#fff;stroke-miterlimit:10;stroke-width:0.5px;}</style></defs><g id="Livello_2" data-name="Livello 2"><g id="Livello_1-2" data-name="Livello 1"><path class="cls-1" d="M.32,39.68V6L19.71,17.28c-1.23.71-2.31,1.38-3.44,2-.19.1-.59-.05-.83-.19L4.76,13,4,12.58v24A1.32,1.32,0,0,1,3.25,38C2.32,38.43,1.37,39.06.32,39.68Z"/><path class="cls-1" d="M29.32,17.28,9.94,28.51V24.43c0-.21.38-.44.63-.58l10.54-6,.82-.5c-.33-.22-.55-.39-.78-.52Q11.12,11,1,5.23A1.28,1.28,0,0,1,.26,3.91C.32,2.81.32,1.71.32.43Z"/><path class="cls-1" d="M8.9,30.43,18.25,25q5.91-3.41,11.86-6.79a1,1,0,0,1,.75,0c.66.33,1.29.73,1.93,1.11s.78,1,0,1.41L7.85,35.29,5.19,36.85V14.43c1.19.68,2.36,1.31,3.47,2,.19.12.22.59.22.9V28.94C8.9,29.43,8.9,29.84,8.9,30.43Z"/><path class="cls-2" d="M45,20.05V6.87h8.27v2h-6V20.06H45Zm1.45-5.53v-2h6v2Z"/><path class="cls-2" d="M55.21,20.19a1.43,1.43,0,0,1-1.06-.39,1.37,1.37,0,0,1-.4-1.07A1.35,1.35,0,0,1,55,17.27h.23a1.44,1.44,0,0,1,1.06.4,1.53,1.53,0,0,1,.39,1.06,1.37,1.37,0,0,1-1.45,1.46Z"/><path class="cls-2" d="M58.62,20.05V9.43h2.22v8.73h4.88V20Z"/><path class="cls-2" d="M67.06,20.05V9.43h2.26v8.73H74.2V20Z"/><path class="cls-2" d="M75.5,20.05V9.43h2.22V20Z"/><path class="cls-2" d="M84.37,20.05V6.87h2.7L91,16.13h-.31l3.82-9.26h2.7V20.06H95.09V9h.48L91.7,18.17H89.83L85.83,9h.58v11.1Z"/><path class="cls-2" d="M98.62,20.05l3.43-10.62h3.27L108.76,20h-2.19l-3-9.66h.23l-3,9.66Zm2.32-2.86.48-1.76h4.47l.48,1.76Z"/><path class="cls-2" d="M110.13,20.05V9.68c.47-.1,1-.19,1.54-.26a16.18,16.18,0,0,1,1.71-.11,5.77,5.77,0,0,1,3.41.84,3,3,0,0,1,1.14,2.57,3,3,0,0,1-2.08,3,6.26,6.26,0,0,1-2.38.38h-1.15v4h-2.19Zm3.34-5.57a3,3,0,0,0,1.8-.43,1.56,1.56,0,0,0,.56-1.33,1.64,1.64,0,0,0-.54-1.35,2.83,2.83,0,0,0-1.7-.41h-.67a6,6,0,0,0-.61.09v3.38h.58Zm2.85,5.57L113,15.15h2.37l3.44,4.9Z"/><path class="cls-2" d="M121.67,20.05V11.32h-3.35V9.43h8.92V11.3h-3.35V20Z"/><path class="cls-2" d="M132.32,20.19a5.41,5.41,0,0,1-2.59-.59A3.94,3.94,0,0,1,128,17.8a6.44,6.44,0,0,1-.61-3,6.7,6.7,0,0,1,.61-3.05,4.1,4.1,0,0,1,1.72-1.8,6,6,0,0,1,5.19,0,4.21,4.21,0,0,1,1.72,1.8,6.7,6.7,0,0,1,.61,3.05,6.7,6.7,0,0,1-.61,3,4.1,4.1,0,0,1-1.72,1.8A5.48,5.48,0,0,1,132.32,20.19Zm0-1.83a2.67,2.67,0,0,0,1.43-.36,2.26,2.26,0,0,0,.91-1.15,5.77,5.77,0,0,0,.32-2.06,6.14,6.14,0,0,0-.32-2.12,2.31,2.31,0,0,0-.92-1.17,2.83,2.83,0,0,0-1.42-.36,2.65,2.65,0,0,0-1.41.36,2.28,2.28,0,0,0-.91,1.14,5.44,5.44,0,0,0-.32,2.07,5.69,5.69,0,0,0,.32,2.13,2.18,2.18,0,0,0,.91,1.16A2.56,2.56,0,0,0,132.32,18.36Z"/><path class="cls-2" d="M139.14,20.05V9.43h2.18v8.73h4.88V20Z"/><path class="cls-2" d="M147.58,20.05V9.43h2.22V20Z"/><path class="cls-2" d="M152.32,20.05V9.43h2.2l5.11,7.77h-.35V9.43h2V20h-2.2L154,12.26h.31V20Z"/><path class="cls-2" d="M163.75,20.05V9.43H166V20Z"/><path class="cls-2" d="M175,20.19a9.63,9.63,0,0,1-1.52-.11,7.2,7.2,0,0,1-1.39-.32V17.92a8.6,8.6,0,0,0,1,.25,8.31,8.31,0,0,0,1,.15,5.49,5.49,0,0,0,.91.05,3.56,3.56,0,0,0,1.21-.15,1.1,1.1,0,0,0,.85-1.14,1.38,1.38,0,0,0-.14-.59,1.28,1.28,0,0,0-.49-.43,5.86,5.86,0,0,0-1-.33l-.67-.15a4.13,4.13,0,0,1-2.21-1.09,2.67,2.67,0,0,1-.7-2,2.91,2.91,0,0,1,.46-1.67,3.12,3.12,0,0,1,1.44-1.14,6.78,6.78,0,0,1,2.53-.36c.42,0,.85,0,1.28.08a11.39,11.39,0,0,1,1.14.21v1.82a9.15,9.15,0,0,0-1.16-.23c-.4,0-.81-.07-1.21-.08a4.81,4.81,0,0,0-1.37.16,1.39,1.39,0,0,0-.71.44,1.2,1.2,0,0,0,.09,1.48,2.71,2.71,0,0,0,1.22.52l.66.15a6.33,6.33,0,0,1,1.73.64,2.53,2.53,0,0,1,1,1,3.38,3.38,0,0,1-.16,3.12,3,3,0,0,1-1.51,1.15A5.76,5.76,0,0,1,175,20.19Z"/><path class="cls-2" d="M181,20.05V9.68c.47-.1,1-.19,1.54-.26a16.18,16.18,0,0,1,1.71-.11,5.77,5.77,0,0,1,3.41.84,3,3,0,0,1,1.14,2.57,3,3,0,0,1-2.08,3,6.26,6.26,0,0,1-2.38.38H183.2v4H181Zm3.31-5.57a3,3,0,0,0,1.8-.43,1.56,1.56,0,0,0,.56-1.33,1.64,1.64,0,0,0-.54-1.35,2.83,2.83,0,0,0-1.7-.41h-.67a6,6,0,0,0-.61.09v3.38h.58Zm2.86,5.57-3.37-4.9h2.39l3.44,4.9Z"/><path class="cls-2" d="M191.22,20.05V9.43h2.22v8.73h4.88V20Z"/><path class="cls-2" d="M48.57,34.15V25.43c.37-.07.74-.13,1.11-.17a11.46,11.46,0,0,1,1.17-.06,4.2,4.2,0,0,1,2.66.73,2.82,2.82,0,0,1,.9,2.3,2.87,2.87,0,0,1-.9,2.26,4.16,4.16,0,0,1-2.81.78H49.54v3Zm2.16-3.72a3.1,3.1,0,0,0,2.08-.55,2.1,2.1,0,0,0,.64-1.68,2.17,2.17,0,0,0-.63-1.72,2.89,2.89,0,0,0-1.91-.54h-.72l-.65.08v4.3l.58.06Z"/><path class="cls-2" d="M56,34.15v-7c.3-.06.62-.1,1-.14a10,10,0,0,1,1.1-.06,4.08,4.08,0,0,1,2.24.48,1.89,1.89,0,0,1,.75,1.63,2,2,0,0,1-.36,1.2,2.21,2.21,0,0,1-1.06.73,5.25,5.25,0,0,1-1.71.25h-1v2.93h-1Zm2-3.6a3,3,0,0,0,1.69-.36,1.22,1.22,0,0,0,.52-1.09A1.27,1.27,0,0,0,59.71,28a2.89,2.89,0,0,0-1.55-.34h-.63l-.55.08v2.75h.49Zm2.62,3.6L58,30.8h1.07l2.65,3.35Z"/><path class="cls-2" d="M63.08,34.15V27h4.79v.76H64v5.66h3.89v.76Zm.6-3.27v-.76h3.7v.76Z"/><path class="cls-2" d="M69.38,34.15V27h4.76v.77H70.32v6.37ZM70,31v-.78h3.59V31Z"/><path class="cls-2" d="M74,34.15,76.65,27H78l2.68,7.14h-1l-2.45-6.72h.14l-2.47,6.72Zm1.46-2.22.22-.77H79l.22.77Z"/><path class="cls-2" d="M83.87,34.22h-1.3l-.65-.07v-7l.67-.11c.24,0,.48-.06.72-.07h.74a4.26,4.26,0,0,1,2.27.46A1.65,1.65,0,0,1,87,28.87a1.74,1.74,0,0,1-.16.75,1.49,1.49,0,0,1-.5.58,1.83,1.83,0,0,1-.86.31v-.08a2.59,2.59,0,0,1,.94.3,1.67,1.67,0,0,1,.58.6,2.09,2.09,0,0,1,.2.88,1.77,1.77,0,0,1-.34,1.1,2,2,0,0,1-1.08.68A6.4,6.4,0,0,1,83.87,34.22Zm.16-.7a4.51,4.51,0,0,0,1.36-.15,1.13,1.13,0,0,0,.92-1.2,1.16,1.16,0,0,0-.45-1,2.51,2.51,0,0,0-1.44-.33h-1.7v-.71h1.6a2.3,2.3,0,0,0,1.42-.32,1.29,1.29,0,0,0,0-1.91,2.92,2.92,0,0,0-1.51-.29H83.5l-.61.08v5.74h.58Z"/><path class="cls-2" d="M90.66,34.22h-1.3l-.65-.07v-7l.67-.11c.24,0,.48-.06.72-.07h.74a4.13,4.13,0,0,1,2.26.48,1.65,1.65,0,0,1,.71,1.44,1.74,1.74,0,0,1-.16.75,1.49,1.49,0,0,1-.5.58,1.83,1.83,0,0,1-.86.31v-.1a2.59,2.59,0,0,1,.94.3,1.67,1.67,0,0,1,.58.6,2.09,2.09,0,0,1,.2.88,1.77,1.77,0,0,1-.34,1.1,2,2,0,0,1-1.08.68A6.63,6.63,0,0,1,90.66,34.22Zm.16-.7a4.51,4.51,0,0,0,1.36-.15,1.13,1.13,0,0,0,.92-1.2,1.16,1.16,0,0,0-.45-1,2.51,2.51,0,0,0-1.44-.33H89.5v-.71h1.56a2.3,2.3,0,0,0,1.42-.32,1.29,1.29,0,0,0,0-1.91,2.92,2.92,0,0,0-1.51-.29h-.68l-.61.08v5.74h.58Z"/><path class="cls-2" d="M95.49,34.15v-7c.3-.06.62-.1,1-.14a10,10,0,0,1,1.1-.06,4.09,4.09,0,0,1,2.27.52,1.89,1.89,0,0,1,.75,1.63,2,2,0,0,1-.36,1.2,2.21,2.21,0,0,1-1.06.73,5.25,5.25,0,0,1-1.71.25h-1v2.93h-1Zm2-3.6a3,3,0,0,0,1.69-.36,1.22,1.22,0,0,0,.52-1.09A1.27,1.27,0,0,0,99.22,28a2.89,2.89,0,0,0-1.55-.34H97l-.55.08v2.75H97Zm2.61,3.6L97.48,30.8h1.07l2.65,3.35Z"/><path class="cls-2" d="M102.58,34.15V27h1v7.14Z"/><path class="cls-2" d="M108.67,34.24a4.28,4.28,0,0,1-1.87-.36,2.5,2.5,0,0,1-1.22-1.16,4.34,4.34,0,0,1-.43-2.13,4.3,4.3,0,0,1,.43-2.08,2.75,2.75,0,0,1,1.23-1.2,4.61,4.61,0,0,1,1.94-.39c.28,0,.56,0,.84,0a5.49,5.49,0,0,1,.79.15v.81q-.39-.09-.78-.15c-.27,0-.54,0-.8-.05a3.41,3.41,0,0,0-1.45.28,1.92,1.92,0,0,0-.89.91,3.84,3.84,0,0,0-.3,1.67,3.78,3.78,0,0,0,.3,1.7,1.74,1.74,0,0,0,.88.89,3.16,3.16,0,0,0,1.39.26,5.52,5.52,0,0,0,.81-.06,6.2,6.2,0,0,0,.83-.19V34a4.75,4.75,0,0,1-.81.19A4.47,4.47,0,0,1,108.67,34.24Z"/><path class="cls-2" d="M110.82,34.15,113.49,27h1.38l2.68,7.14h-1l-2.45-6.72h.14l-2.47,6.72Zm1.5-2.22.22-.77h3.35l.22.77Z"/><path class="cls-2" d="M119.38,34.15V27.81h-2.5V27h6v.8h-2.56v6.34Z"/><path class="cls-2" d="M124,34.15V27h1v7.14Z"/><path class="cls-2" d="M129.93,34.15V27h1v7.14Z"/><path class="cls-2" d="M133,34.15V27h1l4.23,6H138V27h.91v7.14h-1l-4.23-6h.2v6Z"/><path class="cls-2" d="M146.93,34.24a4.28,4.28,0,0,1-1.87-.36,2.5,2.5,0,0,1-1.22-1.16,4.34,4.34,0,0,1-.43-2.13,4.3,4.3,0,0,1,.43-2.08,2.75,2.75,0,0,1,1.23-1.2,4.61,4.61,0,0,1,1.94-.39c.28,0,.56,0,.84,0a5.49,5.49,0,0,1,.79.15v.81q-.39-.09-.78-.15c-.27,0-.54,0-.8-.05a3.41,3.41,0,0,0-1.45.28,1.92,1.92,0,0,0-.89.91,3.84,3.84,0,0,0-.3,1.67,3.78,3.78,0,0,0,.3,1.7,1.74,1.74,0,0,0,.88.89,3.16,3.16,0,0,0,1.39.26,5.52,5.52,0,0,0,.81-.06,6.2,6.2,0,0,0,.83-.19V34a4.75,4.75,0,0,1-.81.19A4.47,4.47,0,0,1,146.93,34.24Z"/><path class="cls-2" d="M149.91,34.15V27h4.79v.76h-3.84v5.66h3.89v.76Zm.6-3.27v-.76h3.7v.76Z"/><path class="cls-2" d="M156.24,34.15V27h1.14l2.66,5.4h-.18l2.63-5.4h1.15v7.14h-.91V27.83H163l-2.65,5.32h-.83l-2.67-5.31h.29v6.31Z"/><path class="cls-2" d="M165.72,34.15V27h4.79v.76h-3.84v5.66h3.89v.76Zm.6-3.27v-.76H170v.76Z"/><path class="cls-2" d="M172,34.15V27h1l4.23,6h-.2V27H178v7.14h-1l-4.23-6h.2v6Z"/><path class="cls-2" d="M181.57,34.15V27.81h-2.5V27h6v.8h-2.5v6.34Z"/><path class="cls-2" d="M188.46,34.24a3.41,3.41,0,0,1-1.69-.38,2.49,2.49,0,0,1-1.12-1.19,4.63,4.63,0,0,1-.4-2.08,4.72,4.72,0,0,1,.4-2.09,2.58,2.58,0,0,1,1.12-1.19,3.64,3.64,0,0,1,1.69-.38,3.7,3.7,0,0,1,1.69.38,2.64,2.64,0,0,1,1.17,1.19,5,5,0,0,1,.4,2.09,4.63,4.63,0,0,1-.4,2.08,2.61,2.61,0,0,1-1.13,1.19A3.59,3.59,0,0,1,188.46,34.24Zm0-.78a2.2,2.2,0,0,0,1.17-.28,1.9,1.9,0,0,0,.78-.9,5.21,5.21,0,0,0,0-3.37,1.9,1.9,0,0,0-.78-.92,2.52,2.52,0,0,0-1.17-.28,2.38,2.38,0,0,0-1.17.28,1.87,1.87,0,0,0-.77.9,4.17,4.17,0,0,0-.28,1.67,4.27,4.27,0,0,0,.27,1.7,1.83,1.83,0,0,0,.77.92,2.39,2.39,0,0,0,1.18.25Z"/></g></g></svg>