<svg width="51" height="60" viewBox="0 0 51 60" fill="none" xmlns="http://www.w3.org/2000/svg">
<path d="M0.0950928 59.9999C0.0950928 42.7719 0.0950928 25.7884 0.0950928 8.57568C9.96605 14.3082 19.6847 19.9642 29.6318 25.7578C27.7581 26.8432 26.113 27.8674 24.3917 28.7693C24.1022 28.9222 23.4929 28.6929 23.1273 28.4789C17.7044 25.3757 12.2815 22.2572 6.85853 19.1387C6.55387 18.9706 6.24921 18.8177 5.76175 18.5731C5.73129 19.1082 5.70082 19.5209 5.70082 19.9184C5.70082 31.7196 5.68559 43.5209 5.73129 55.3222C5.73129 56.3617 5.45709 56.9578 4.52788 57.4317C3.08075 58.1502 1.69455 59.0521 0.0950928 59.9999Z" fill="url(#paint0_linear_571_253)"/>
<path d="M44.2554 25.758C34.3235 31.5363 24.6354 37.1618 14.7492 42.9248C14.7492 40.7083 14.7035 38.6904 14.7949 36.6879C14.8101 36.3669 15.3737 36.0153 15.7545 35.8013C21.1013 32.7134 26.4481 29.6408 31.8101 26.5681C32.1757 26.3541 32.5108 26.1401 33.0592 25.8038C32.5565 25.4675 32.2214 25.2076 31.871 25.0089C21.6497 19.093 11.4284 13.1924 1.19184 7.33758C0.33879 6.83312 -0.0420336 6.32866 0.00366523 5.31975C0.095063 3.63822 0.0341311 1.95669 0.0341311 0C14.8101 8.60637 29.388 17.1057 44.2554 25.758Z" fill="url(#paint1_linear_571_253)"/>
<path d="M13.165 45.8445C18.0852 43.0012 22.7465 40.2955 27.4078 37.605C33.4248 34.135 39.4418 30.6649 45.4741 27.2254C45.7787 27.0573 46.3119 27.0573 46.6166 27.2101C47.6219 27.7146 48.5816 28.3261 49.5565 28.9069C50.7447 29.6101 50.7447 30.3745 49.5717 31.0624C36.8979 38.4764 24.2393 45.8751 11.5655 53.2891C10.2555 54.0534 8.94545 54.8331 7.51355 55.6738C7.51355 44.2089 7.51355 32.8815 7.51355 21.4165C9.32627 22.456 11.1085 23.4191 12.7994 24.5197C13.0888 24.7031 13.1345 25.4216 13.1345 25.8955C13.1497 31.8114 13.1497 37.7273 13.1497 43.6433C13.165 44.3006 13.165 44.9579 13.165 45.8445Z" fill="url(#paint2_linear_571_253)"/>
<defs>
<linearGradient id="paint0_linear_571_253" x1="14.8656" y1="8.57339" x2="14.8656" y2="59.9938" gradientUnits="userSpaceOnUse">
<stop stop-color="#CF1622"/>
<stop offset="0.1265" stop-color="#CF1622"/>
<stop offset="0.2568" stop-color="#B91622"/>
<stop offset="0.5145" stop-color="#821622"/>
<stop offset="0.6056" stop-color="#66131B"/>
<stop offset="0.7393" stop-color="#430F12"/>
<stop offset="0.8487" stop-color="#2D0D0C"/>
<stop offset="0.9196" stop-color="#250C0A"/>
<stop offset="1" stop-color="#250C0A"/>
</linearGradient>
<linearGradient id="paint1_linear_571_253" x1="22.1294" y1="0" x2="22.1294" y2="42.9262" gradientUnits="userSpaceOnUse">
<stop stop-color="#CF1622"/>
<stop offset="0.1265" stop-color="#CF1622"/>
<stop offset="0.2568" stop-color="#B91622"/>
<stop offset="0.5145" stop-color="#821622"/>
<stop offset="0.6056" stop-color="#66131B"/>
<stop offset="0.7393" stop-color="#430F12"/>
<stop offset="0.8487" stop-color="#2D0D0C"/>
<stop offset="0.9196" stop-color="#250C0A"/>
<stop offset="1" stop-color="#250C0A"/>
</linearGradient>
<linearGradient id="paint2_linear_571_253" x1="29.0041" y1="21.4193" x2="29.0041" y2="55.6835" gradientUnits="userSpaceOnUse">
<stop stop-color="#CF1622"/>
<stop offset="0.1265" stop-color="#CF1622"/>
<stop offset="0.2568" stop-color="#B91622"/>
<stop offset="0.5145" stop-color="#821622"/>
<stop offset="0.6056" stop-color="#66131B"/>
<stop offset="0.7393" stop-color="#430F12"/>
<stop offset="0.8487" stop-color="#2D0D0C"/>
<stop offset="0.9196" stop-color="#250C0A"/>
<stop offset="1" stop-color="#250C0A"/>
</linearGradient>
</defs>
</svg>
